<?xml version="1.0" encoding="UTF-8" standalone="no"?><!DOCTYPE svg PUBLIC "-//W3C//DTD SVG 1.1//EN" "http://www.w3.org/Graphics/SVG/1.1/DTD/svg11.dtd"><svg width="100%" height="100%" viewBox="0 0 27 27" version="1.1" xmlns="http://www.w3.org/2000/svg" xmlns:xlink="http://www.w3.org/1999/xlink" xml:space="preserve" xmlns:serif="http://www.serif.com/" style="fill-rule:evenodd;clip-rule:evenodd;stroke-linejoin:round;stroke-miterlimit:2;"><path d="M26.25,26.25l-24.422,0c-1.009,0 -1.828,-0.819 -1.828,-1.828l0,-22.594c0,-1.009 0.819,-1.828 1.828,-1.828l24.422,0l0,26.25Zm-20.321,-13.603c-0.113,0 -0.215,0.068 -0.259,0.173c-0.043,0.104 -0.019,0.225 0.061,0.305c1.516,1.516 6.177,6.177 7.196,7.196c0.109,0.109 0.287,0.109 0.396,0c1.019,-1.019 5.68,-5.68 7.196,-7.196c0.08,-0.08 0.104,-0.201 0.061,-0.305c-0.044,-0.105 -0.146,-0.173 -0.259,-0.173c-1.284,0 -3.947,0 -3.947,0l0,-7.97c0,-0.154 -0.125,-0.28 -0.28,-0.28c-1.067,0 -4.871,0 -5.938,0c-0.155,0 -0.28,0.126 -0.28,0.28l0,7.97l-3.947,0Zm16.295,8.059l-18.198,0c-0.248,0 -0.45,0.202 -0.45,0.45l0,0.968c0,0.249 0.202,0.45 0.45,0.45l18.198,0c0.248,0 0.45,-0.201 0.45,-0.45l0,-0.968c0,-0.248 -0.202,-0.45 -0.45,-0.45Z" style="fill:#fff;"/></svg>