<?xml version="1.0" encoding="UTF-8" standalone="no"?>
<!DOCTYPE svg PUBLIC "-//W3C//DTD SVG 1.1//EN" "http://www.w3.org/Graphics/SVG/1.1/DTD/svg11.dtd">
<svg width="100%" height="100%" viewBox="0 0 154 128" version="1.1" xmlns="http://www.w3.org/2000/svg" xmlns:xlink="http://www.w3.org/1999/xlink" xml:space="preserve" xmlns:serif="http://www.serif.com/" style="fill-rule:evenodd;clip-rule:evenodd;stroke-linejoin:round;stroke-miterlimit:1.41421;">
    <g transform="matrix(1,0,0,1,-0.00123983,-0.000225048)">
        <g transform="matrix(-2.9791,0,0,2.9791,1071.9,-2353.73)">
            <rect x="312.272" y="810.251" width="20.642" height="4.954" style="fill:rgb(242,242,242);"/>
        </g>
        <g transform="matrix(2.9791,0,0,2.9791,138.8,95.58)">
            <path d="M0,-4.496L-42.227,-4.496C-43.074,-4.496 -43.76,-4.081 -43.76,-3.57L-43.76,-0.926C-43.76,-0.414 -43.074,0 -42.227,0L0,0C0.847,0 1.534,-0.414 1.534,-0.926L1.534,-3.57C1.534,-4.081 0.847,-4.496 0,-4.496" style="fill:rgb(242,242,242);fill-rule:nonzero;"/>
        </g>
        <g transform="matrix(-2.9791,0,0,2.9791,929.942,-2353.73)">
            <rect x="288.799" y="810.251" width="19.936" height="4.954" style="fill:rgb(242,242,242);"/>
        </g>
        <g transform="matrix(2.9791,0,0,2.9791,142.322,127.558)">
            <path d="M0,-7.785L-43.88,-7.785C-46.03,-7.785 -47.773,-6.042 -47.773,-3.892C-47.773,-1.743 -46.03,0 -43.88,0L0,0C2.15,0 3.893,-1.743 3.893,-3.892C3.893,-6.042 2.15,-7.785 0,-7.785" style="fill:rgb(242,242,242);fill-rule:nonzero;"/>
        </g>
        <g transform="matrix(1,0,0,1,0.00123983,0.000225048)">
            <path d="M8.366,53.764L145.542,53.764C150.297,53.764 153.916,50.293 153.21,46.429C150.52,31.716 137.68,0 76.954,0C16.231,0 3.388,31.716 0.698,46.429C-0.011,50.293 3.612,53.764 8.366,53.764ZM79.015,7.544C79.015,7.544 78.177,9.048 77.448,10.946C76.191,14.22 75.263,18.665 79.536,18.578C84.841,18.469 79.848,9.209 79.015,7.544ZM63.922,7.544C63.922,7.544 49.192,11.335 54.988,16.374C57.444,18.51 64.269,7.631 63.922,7.544ZM95.806,7.544C95.806,7.544 110.537,11.335 104.74,16.374C102.284,18.51 95.459,7.631 95.806,7.544Z" style="fill:rgb(242,242,242);"/>
        </g>
    </g>
</svg>
