<?xml version="1.0" encoding="UTF-8" standalone="no"?>
<!DOCTYPE svg PUBLIC "-//W3C//DTD SVG 1.1//EN" "http://www.w3.org/Graphics/SVG/1.1/DTD/svg11.dtd">
<svg width="100%" height="100%" viewBox="0 0 246 173" version="1.1" xmlns="http://www.w3.org/2000/svg" xmlns:xlink="http://www.w3.org/1999/xlink" xml:space="preserve" xmlns:serif="http://www.serif.com/" style="fill-rule:evenodd;clip-rule:evenodd;stroke-linejoin:round;stroke-miterlimit:1.41421;">
    <g transform="matrix(1,0,0,1,-6.83897e-14,-1.60936)">
        <path d="M7.667,88.113C16.855,63.243 32.412,18.93 36.74,6.931C37.852,3.849 40.437,1.609 43.614,1.609C72.271,1.609 172.329,1.609 201.076,1.609C204.274,1.609 206.783,3.902 207.996,6.967C212.536,18.448 228.57,63.104 237.969,88.113C237.969,88.113 241.336,88.113 243.637,88.113C244.796,88.113 245.736,89.053 245.736,90.212C245.736,93.685 245.736,100.588 245.736,104.061C245.736,105.22 244.796,106.16 243.637,106.16C230.376,106.16 158.786,106.16 158.786,106.16C158.786,106.16 151.982,106.16 149.163,106.16C148.474,106.16 147.87,105.702 147.684,105.039C146.074,99.7 139.466,95.759 133.695,95.759L111.031,95.759C105.26,95.759 98.652,99.7 97.028,105.035C96.843,105.691 96.245,106.144 95.563,106.144C94.504,106.16 93.127,106.16 93.127,106.16C93.127,106.16 15.905,106.16 2.099,106.16C0.94,106.16 0,105.22 0,104.061C0,100.588 0,93.685 0,90.212C0,89.656 0.221,89.122 0.615,88.728C1.009,88.334 1.543,88.113 2.099,88.113C4.369,88.113 7.667,88.113 7.667,88.113Z" style="fill:rgb(243,243,243);"/>
        <path d="M131.793,104.16C137.027,104.16 141.341,108.131 141.882,113.222C141.935,113.775 142.399,114.196 142.953,114.196C152.601,114.204 227.847,114.204 227.847,114.204L227.045,116.602L207.968,169.477C207.068,171.97 204.702,173.632 202.051,173.632C178.342,173.632 66.383,173.632 42.675,173.632C40.024,173.632 37.657,171.97 36.758,169.477L17.68,116.602L16.878,114.204C16.878,114.204 92.125,114.204 101.773,114.204C102.331,114.204 102.798,113.779 102.85,113.223C103.385,108.131 107.699,104.16 112.933,104.16L131.793,104.16Z" style="fill:rgb(243,243,243);"/>
    </g>
</svg>
