<?xml version="1.0" encoding="UTF-8" standalone="no"?><!DOCTYPE svg PUBLIC "-//W3C//DTD SVG 1.1//EN" "http://www.w3.org/Graphics/SVG/1.1/DTD/svg11.dtd"><svg width="100%" height="100%" viewBox="0 0 1022 845" version="1.1" xmlns="http://www.w3.org/2000/svg" xmlns:xlink="http://www.w3.org/1999/xlink" xml:space="preserve" xmlns:serif="http://www.serif.com/" style="fill-rule:evenodd;clip-rule:evenodd;stroke-linejoin:round;stroke-miterlimit:1.41421;"><path d="M194.241,529.315c0.133,-1.57 -0.586,-2.269 -2.149,-2.15c0.999,3.092 -3.66,2.096 -1.431,4.306c2.449,0.532 0.907,-2.9 3.58,-2.156m40.368,207.757c7.211,0.473 3.073,-3.671 0,0m264.893,-208.11c0.639,-1.85 1.128,-3.448 -0.725,-4.299c-0.984,0.939 -1.245,4.289 0.725,4.299m208.113,263.458c0.322,-2.237 -1.544,-2.281 -3.589,-2.146c0.677,3.06 -2.834,1.945 -2.859,4.302c4.028,1.16 2.562,-3.167 6.448,-2.156m30.787,-20.083c1.475,-1.588 -0.363,-3.867 -1.437,-5.03c-0.12,2.27 -0.029,4.328 1.437,5.03m23.367,-243.662c1.232,-1.882 4.895,-1.34 4.29,-5.04c-3.121,-0.296 -6.994,4.012 -4.29,5.04m12.166,-9.329c-2.623,-0.24 -3.666,1.093 -4.29,2.852c2.626,0.236 3.669,-1.103 4.29,-2.852m91.858,118.112c0.599,-0.838 0.942,-1.926 0.715,-3.584c-1.985,0.404 -4.012,0.798 -3.58,3.587c0.958,0.013 1.913,-0.003 2.865,-0.003m154.512,-235.934c-1.86,29.859 2.638,62.162 0.094,85.274c-0.249,2.329 -1.172,6.227 -2.137,8.604c-2.143,5.257 -3.457,3.735 -1.421,9.313c3.876,10.641 -1.857,22.368 -10.004,25.813c-8.204,3.458 -28.164,4.167 -36.541,0.757c-0.899,-0.344 -3.634,-4.265 -5.024,-4.293c-1.97,-0.041 -6.534,4.977 -11.454,5.742c-5.08,0.782 -8.979,-0.557 -15.053,0.032c-1.601,-3.19 2.427,-6.984 -2.159,-8.608c-0.791,2.613 0.99,4.955 0.729,8.614c-1.914,-0.016 -3.824,-0.016 -5.737,0.007c0.659,0.772 -2.824,7.898 1.447,7.863c-1.853,1.57 -7.303,0.653 -9.32,0.029c-0.328,-2.957 1.806,0.545 2.868,-1.457c1.148,-2.477 -2.698,-5.503 0.706,-5.729c-2.401,-1.652 -7.866,-0.246 -11.466,-0.688c-7.006,6.244 3.064,12.759 -2.124,19.333c-1.85,-0.52 -2.496,-2.282 -2.159,-5.014c-4.986,10.546 -7.93,23.121 -12.856,33.695c0.643,1.942 2.641,-0.598 2.862,-1.437c-0.066,4.088 4.46,6.729 0.734,11.463c-5.708,-1.396 -2.112,-3.624 -3.596,-8.595c-1.715,2.496 -4.803,6.65 -2.137,9.317c-4.135,1.021 -7.86,8.818 -5.72,11.475c-2.626,2.569 -9.44,10.19 -5.002,12.901c-2.21,1.869 -1.784,6.335 -6.439,5.739c-5.736,12.43 -15.86,24.268 -20.027,35.854c-10.035,9.311 -16.376,22.308 -25.771,32.277c-3.064,-0.252 -2.024,-4.658 -5.724,-4.292c-0.731,0.699 -1.444,1.418 -2.146,2.152c-0.013,2.402 3.315,1.457 4.302,2.872c-1.359,1.409 -2.506,1.213 -4.299,0.706c-2.194,0.914 -0.353,2.364 -1.428,5.02c-3.089,0.946 -0.882,-3.403 -3.587,-2.861c-1.954,0.662 1.006,2.241 0.003,4.302c3.168,0.293 5.018,-0.725 6.449,-2.162c0.003,3.136 -7.24,11.967 -10.019,10.044c-4.18,12.16 -17.25,18.385 -25.051,27.994c-2.074,-0.403 1.107,-1.106 0.716,-2.165c-2.853,-0.968 -6.342,-1.292 -8.601,-2.859c0.573,3.24 1.276,5.198 1.44,7.164c0.775,0.82 2.373,0.401 3.316,-0.466c-21.398,21.252 -49.442,41.947 -79.923,56.448c-17.646,11.904 -37.893,20.124 -60.879,28.019c-0.359,-2.257 2.465,-1.885 0.712,-3.587c-3.728,-0.142 -3.801,3.366 -7.876,2.878c-0.205,1.881 2.774,0.561 2.153,2.865c-28.473,9.524 -59.008,16.994 -93.85,20.187c0.072,-1.378 2.373,-0.514 2.146,-2.172c-0.731,-1.651 -3.297,-1.468 -5.73,-1.424c-2.26,0.494 2.796,3.268 0.719,3.58c-22.198,2.821 -50.034,2.928 -73.086,0.804c-2.928,0.224 0.116,-0.987 -0.725,-2.868c-15.176,2.14 -25.091,0.299 -39.413,-2.103c0.252,-0.939 1.251,-1.118 1.431,-2.149c-2.704,-1.028 -1.371,1.97 -3.584,1.434c-41.417,-7.025 -76.742,-20.168 -109.671,-35.7c-0.319,-1.119 -2.257,-0.611 -1.438,-2.849c-3.076,-0.58 -2.928,0.091 -5.736,-0.725c-31.713,-17.001 -60.737,-36.683 -86.774,-59.36c1.131,-1.75 6.348,0.592 5.014,-3.603c-1.301,-1.926 -2.625,2.109 -5.733,0.741c-27.7,-20.067 -47.695,-47.872 -68.16,-75.182c-0.271,-1.223 0.549,-1.343 1.428,-1.434c-1.15,-1.315 -2.266,0.514 -3.58,-1.431c-3.177,-6.89 -6.925,-11.261 -11.488,-17.899c-0.268,-1.207 0.551,-1.358 1.431,-1.418c-6.2,-3.981 -9.465,-11.665 -4.322,-17.924c-0.658,-2.689 -5.745,-0.936 -8.598,-1.425c-2.341,-11.431 -11.377,-14.29 -11.497,-26.5c6.6,0.561 13.215,1.119 13.628,7.867c-1.765,-0.372 -4.794,-0.01 -7.886,-0.706c1.825,2.953 6.78,2.764 10.036,4.286c1.304,4.072 5.818,8.352 5.033,12.176c2.449,1.862 5.452,5.326 4.308,8.594c22.696,32.593 42.398,64.41 71.047,90.223c-0.107,1.311 -2.436,0.419 -2.868,1.418c6.124,1.592 12.248,4.734 13.628,12.884c0.202,2.585 -3.132,1.646 -4.292,2.875c0.687,1.771 2.745,-0.993 5.011,-0.013c1.421,-1.358 0.34,-3.372 0,-5.011c74.057,62.074 161.534,110.715 301.797,106.419c0.17,2.313 -1.264,3.035 -0.713,5.749c0.542,2.313 4.019,1.68 5.737,2.843c2.6,-3.168 -1.961,-8.296 -1.441,-9.314c64.993,-4.586 117.463,-21.662 162.612,-46.047c1.775,0.923 2.963,-2.112 3.58,-0.006c10.467,-8.671 27.853,-16.556 40.1,-25.842c2.928,-0.286 2.897,2.355 6.449,1.425c0.507,-2.657 -2.512,-1.787 -3.587,-2.862c24.373,-18.63 48.178,-37.827 68.006,-60.971c0.91,-1.018 3.385,-0.453 4.299,-1.437c5.641,-13.117 19.241,-24.133 27.187,-37.298c1.134,1.211 -2.43,6.351 0.725,7.867c3.665,-2.777 2.001,-10.883 7.151,-12.169c0.025,-1.544 -2.692,-3.914 -1.44,-4.302c8.342,-16.985 22.342,-32.088 26.452,-50.91c2.301,0.611 2.241,-1.107 2.872,-2.166c0.529,-2.433 -2.922,-0.892 -2.159,-3.577c1.657,-0.214 2.748,0.114 3.583,0.709c3.35,-7.403 7.06,-16.446 10.722,-25.806c4.952,-12.636 12.343,-26.065 6.405,-36.554c-1.674,0.003 -3.347,0.006 -5.015,0.003c-2.997,4.813 7.653,21.072 -4.992,22.938c-0.763,-3.12 2.417,-2.36 2.146,-5.02c-3.353,-3.518 -6.089,-9.966 -3.605,-17.19c-6.795,-1.292 -12.989,-0.268 -21.498,-0.69c-0.234,3.952 1.304,14.788 -1.409,20.079c-3.543,-3.983 -6.717,-0.488 -10.026,1.428c-0.69,-1.207 1.065,-4.759 1.418,-7.167c2.317,-0.167 3.032,1.267 5.736,0.712c0.309,-4.778 -3.063,-3.952 -5.739,-4.295c-0.753,-4.731 -2.379,-5.431 -2.162,-10.029c-2.358,-1.444 -7.249,-0.366 -10.747,-0.706c1.115,-3.177 3.712,-4.886 4.292,-8.605c-5.736,0.965 -7.236,6.146 -11.46,8.611c-5.254,0.009 -10.511,0.016 -15.765,0.019c-1.119,0.035 1.712,5.853 -2.146,5.021c-1.652,-1.595 0.239,-2.793 -0.003,-5.015c-8.122,0.01 -16.241,0.016 -24.363,0.025c-2.147,3.395 -1.98,4.23 0.728,6.452c-2.377,-1.689 -6.42,-1.68 -5.758,-6.445c-9.78,0.009 -19.57,0.022 -29.365,0.053c-3.357,-0.104 0.775,-1.065 -0.004,-2.865c-5.525,-1.478 -3.98,4.12 -9.31,2.856c-8.239,17.568 -20.187,35.971 -32.189,51.648c-4.86,6.322 -9.294,14.848 -15.743,15.781c0.073,1.761 1.346,2.209 0.003,3.583c-14.747,14.873 -30.345,28.877 -48.682,40.172c0.022,3.118 0.246,6.462 -0.703,8.614c-1.494,-1.387 -0.009,-5.745 -2.874,-5.73c-39.687,23.62 -85.151,41.481 -149.721,40.286c1.478,-1.39 1.116,-4.602 2.146,-6.452c2.998,-0.614 3.388,1.384 5.73,1.425c0.416,-3.045 -1.929,-3.328 -3.583,-4.296c-4.091,0.933 -4.728,5.308 -5.721,9.326c-20.606,-0.769 -42.643,-4.236 -60.92,-9.231c-10.414,-2.856 -20.893,-5.412 -28.681,-11.447c-1.592,1.673 -2.79,-0.237 -5.015,0.022c-16.682,-8.847 -35.233,-15.876 -48.045,-28.625c-36.762,-22.932 -63.209,-56.205 -83.944,-95.208c-3.227,0.87 -8.74,-3.483 -7.889,-6.439c-0.709,-3.476 3.997,0.265 3.577,-1.434c-26.109,-2.301 -61.582,-2.468 -88.135,0.101c-3.559,-2.89 -12.11,-0.795 -17.918,-1.415c-0.265,4.362 -5.062,11.428 -0.697,16.48c-5.663,-2.052 -10.325,-7.047 -7.901,-15.037c-0.164,-2.225 -3.568,-1.204 -5.733,-1.428c-1.894,0.571 1.601,3.373 -1.431,3.587c-2.15,0.044 -3.644,-2.099 -2.153,-3.583l-11.463,0.015c-1.79,2.27 -1.576,6.556 -2.858,9.32c-1.702,-0.221 -7.407,-1.96 -7.886,-5.724c1.79,-1.809 2.821,0.817 5.014,0.71c0.546,-6.761 -8.872,-3.54 -14.337,-4.284c2.443,7.108 2.978,19.166 8.623,20.77c-1.015,11.17 7.492,24.285 11.507,35.102c-3.174,2.556 -7.51,2.367 -11.466,0.731c-7.378,-18.58 -15.642,-36.261 -19.411,-56.59c-17.824,-0.797 -41.144,1.097 -57.325,0.069c-6.735,-0.413 -14.756,-3 -15.777,-10.016c-9.285,-0.914 -17.571,2.172 -22.936,-4.989c-8.509,-11.365 -4.27,-40.302 10.7,-38.707c1.463,12.405 -3.857,31.625 5.059,36.538c0.006,2.629 -2.502,2.749 -3.574,4.306c2.736,2.37 4.116,-1.198 6.445,-1.441c99.486,-0.072 198.58,-0.246 299.528,-0.35c2.808,-0.419 1.84,2.944 3.586,3.581c4.372,-3.155 9.358,-4.548 16.481,-2.884c0.961,5.973 -2.77,7.258 -2.14,12.9c-19.355,1.68 -41.78,0.303 -62.336,0.788c7.514,17.354 18.413,31.284 27.998,46.548c0.945,4.041 -2.831,3.373 -2.859,6.452c3.224,0.697 7.161,-4.639 10.032,0.703c1.125,2.55 -2.433,0.435 -2.146,2.153c0.661,2.389 2.868,0.371 4.302,2.877c-0.668,2.477 -5.16,3.974 -2.856,7.155c4.271,0.444 2.755,-4.886 4.29,-7.158c30.641,31.927 66.366,58.771 114.736,72.944c0.631,1.267 3.184,1.173 1.438,2.881c2.256,0.34 2.521,-1.305 5.014,-0.741c20.685,7.965 49.574,7.706 74.536,11.381c1.837,-1.509 5.55,-1.144 7.883,-2.146c3.224,1.535 5.569,3.981 7.888,6.426c3.581,-1.569 0.502,-5.417 1.425,-7.167c19.465,-1.336 36.478,-5.118 52.297,-10.076c1.897,0.473 1.513,3.253 3.59,3.565c2.414,-1.362 -1.229,-2.509 -0.725,-4.287c68.05,-23.011 116.413,-65.67 148.186,-124.869c0.899,0.179 0.722,1.415 0.007,1.431c0.012,1.689 -1.239,2.108 -0.716,4.302c3.883,1.071 7.284,-2.783 10.023,-6.461c-2.67,0.047 -4.539,-0.713 -6.449,-1.425c-1.809,-1.79 0.817,-2.808 0.713,-4.999c-34.156,-0.444 -70.225,1.018 -103.186,-0.602c-3.215,0.335 -1.573,-4.176 -3.593,-5.023c-2.25,-0.36 -2.534,1.298 -5.014,0.721c-0.133,1.375 -2.969,3.631 -1.428,4.302c-7.148,0.171 -19.242,2.216 -27.228,0.747c-0.359,-0.063 -3.168,-2.146 -3.584,-2.146c-0.69,0.016 -3.148,2.065 -3.583,2.153c-9.849,2.329 -25.199,0.028 -39.41,0.044c-53.025,0.063 -104.953,0.063 -159.079,0.186c-3.375,0.766 1.176,-2.418 -1.44,-2.865c-4.551,-0.53 -1.071,2.332 -2.143,2.868c-6.42,-0.381 -15.437,0.542 -21.498,0.041c-2.749,-0.252 -5.856,-3.637 -6.449,-0.006c-3.719,-1.236 3.13,-4.321 -0.009,-7.164c-3.001,0.819 -2.367,5.273 -4.293,7.167c-4.299,0.006 -8.598,0.025 -12.894,0.016c0.858,-3.915 7.026,-2.531 9.307,-5.027c-1.377,-3.88 -4.248,-6.266 -7.176,-8.576c185.292,-1.545 379.497,-1.173 568.243,-1.387c27.436,-0.035 55.282,2.603 80.975,-0.095c4.535,-0.469 4.52,-1.752 9.317,0.706c-0.47,-2.745 0.466,-6.6 3.567,-9.323c-0.009,-6.205 -0.012,-12.418 -0.022,-18.63c-0.507,-2.65 2.509,-1.79 3.584,-2.871c0.34,-2.729 -2.544,-2.235 -3.59,-3.577c-0.028,-27.228 -0.063,-54.456 -0.098,-81.691c4.662,-1.736 8.063,-0.857 14.335,-1.449" style="fill:#252f28;fill-rule:nonzero;"/><path d="M5.622,390.533c-1.658,-0.239 -2.745,0.11 -3.584,0.703c-0.028,0.986 0.347,1.569 0.722,2.153c1.819,-0.092 2.774,-1.053 2.862,-2.856m7.145,-18.655c-0.715,0.003 -1.434,0.003 -2.153,0.003c0.155,3.029 -4.097,5.421 -1.421,8.601c1.834,-2.225 2.966,-5.153 3.574,-8.604m-2.153,-2.147c0.461,-2.597 3.348,1.652 3.581,-0.718c-1.267,-0.643 -1.825,-2.002 -4.299,-1.431c0,0.479 -0.003,0.955 0.003,1.434c0.041,0.432 0.107,0.851 0.715,0.715m173.886,-208.725c-2.676,-1.295 -4.431,1.469 -5.727,3.59c3.3,0.192 3.625,-2.584 5.727,-3.59m30.307,184.126c-0.643,-1.986 1.472,-6.735 -1.437,-6.449c-2.956,1.349 -8.198,0.413 -10.029,2.881c2.629,0.473 1.765,4.444 3.59,5.727c2.537,-0.81 3.593,-3.095 7.876,-2.159m142.595,-4.466c0.026,-2.162 0.413,-4.718 -2.152,-4.296c-1.551,1.645 -0.249,4.466 2.152,4.296m2.72,-128.986c-2.225,0.076 -3.422,-0.876 -5.02,-1.428c0.822,1.567 0.157,4.627 2.152,5.015c0.479,-1.671 2.377,-1.929 2.868,-3.587m196.5,137.354c2.758,-2.897 7.791,0.725 11.463,-1.428c-2.714,-5.103 -10.083,-3.527 -11.463,1.428m17.71,-174.863c0.488,-2.405 -1.211,-2.61 -2.872,-2.859c-0.321,2.238 0.631,3.19 2.872,2.859m12.897,-1.45c-1.731,0.3 -1.551,-1.311 -3.584,-0.709c-0.98,3.477 3.224,1.995 3.584,0.709m45.889,25.032c-0.684,2.625 3.527,2.846 3.581,0.712c-0.836,-0.596 -1.926,-0.943 -3.581,-0.712m235.916,143.758c0.422,-1.929 -2.941,-3.628 -3.584,-2.147c1.273,0.637 0.917,2.909 3.584,2.147m65.219,6.388c0.073,-2.285 -5.393,-3.161 -5.733,-0.728c2.701,-0.551 3.42,0.879 5.733,0.728m72.361,-10.851c18.763,8.487 12.645,37.146 13.688,63.782c-4.749,-1.27 -9.089,0.637 -14.334,-0.719c-1.661,-17.691 4.848,-43.601 -7.224,-50.869c-18.226,0.217 -32.567,-0.142 -44.43,-1.384c-3.609,0.274 -2.625,-4.056 -5.733,-4.289c-0.615,1.686 -2.906,4.463 -1.132,5.077c-86.629,1.683 -176.246,0.378 -263.994,0.961c2.184,-21.68 35.486,-12.301 57.308,-14.381c3.357,0.085 -0.772,1.043 0.007,2.849c5.506,-0.501 7.526,2.496 12.9,2.134c-1.365,-3.193 -4.381,-4.696 -7.174,-6.442c-15.456,-41.345 -39.393,-74.385 -68.913,-101.673c-29.661,-27.417 -67.321,-45.379 -110.418,-59.347c-14.287,-1.598 -28.581,-3.877 -43.715,-4.968c-12.56,-0.911 -24.575,0.06 -36.548,-1.393c-2.449,-0.532 -0.911,2.916 -3.581,2.156c-95.665,10.738 -154.13,58.55 -195.484,123.48c-1.264,1.793 -0.908,0.775 -3.581,0.718c0.243,14.319 -12.881,25.741 -16.433,42.297c63.87,1.39 135.838,0.564 205.659,0.479c22.812,-0.025 47.144,-2.023 63.779,2.792c10.637,-4.535 28.838,-2.899 50.875,-2.924c26.693,-0.029 55.301,-5.901 58.043,14.264c-61.374,0.073 -122.758,0.142 -184.145,0.215c-2.272,-0.117 -1.941,-2.837 -2.158,-5.015c-2.311,0.558 -2.487,3.243 -3.575,5.018c-4.478,-0.274 -10.747,1.21 -12.187,-2.134c-1.715,-0.277 0.406,3.269 -2.147,2.153c-17.435,0.019 -34.871,0.044 -52.31,0.06c-2.609,0.466 -0.882,-3.417 -2.868,-3.581c-4.5,6.008 -18.195,2.846 -27.943,3.619c-2.761,0.151 -0.763,-4.495 -2.156,-5.73c-1.61,0.539 -0.277,4.015 -0.712,5.73c-64.967,0.078 -129.938,0.154 -194.905,0.226c-3.136,0.514 -1.529,-3.728 -3.59,-4.295c-5.742,6.202 -20.013,3.889 -31.524,4.336c-3.192,0.81 -2.584,-2.193 -3.586,-3.58c-3.099,4.977 -10.833,3.911 -14.331,0.016c-4.898,0.365 -5.475,5.039 -12.179,3.599c-3.615,-0.533 3.045,-1.198 1.431,-4.299c-3.243,-1.598 -5.358,1.645 -9.317,1.444c-1.478,-1.39 -1.122,-4.615 -2.155,-6.449c-7.193,3.07 -18.255,2.288 -21.489,9.342c-12.941,-0.895 -29.554,1.882 -40.128,-1.387c0.227,3.625 -6.234,3.902 -9.304,7.892c0.019,18.885 0.044,37.739 0.066,56.609c0.331,3.193 -5.601,0.142 -6.452,2.159c-0.413,3.52 5.226,0.977 6.455,2.855c0.016,14.331 0.035,28.666 0.051,42.997c-19.768,-1.217 -13.216,-28.842 -14.388,-48.711c-0.719,-2.389 0.996,-2.345 2.865,-2.152c0.488,-2.884 -3.02,-1.759 -2.872,-4.296c1.015,-25.473 -5.115,-58.065 12.103,-67.372c5.834,-1.649 8.866,-0.955 15.044,-2.884c1.865,-0.435 2.581,0.28 2.152,2.146c2.449,0.533 0.908,-2.912 3.581,-2.156c19.824,-0.019 39.649,-0.044 59.476,-0.066c1.98,-2.792 1.876,-4.466 5.724,-4.305c-0.104,-2.285 -2.66,-2.118 -2.871,-4.296c13.209,-57.926 36.469,-105.827 65.758,-147.691c-0.438,-2.569 -3.454,-2.566 -1.443,-5.73c2.48,-0.514 2.571,2.502 1.44,3.577c6.713,-2.603 9.115,-18.747 20.042,-17.218c0.58,-2.988 -0.977,-5.988 -0.01,-7.164c1.986,-1.601 2.311,-4.857 6.446,-4.308c-0.763,-2.837 0.772,-4.567 2.146,-6.452c9.402,-12.806 24.124,-25.019 37.219,-36.589c38.19,-33.752 86.094,-64.189 139.636,-81.132c-1.463,3.315 -3.366,6.183 -2.849,11.466c-80.197,29.743 -140.912,78.929 -188.299,141.381c-0.952,1.274 -4.154,-1.172 -5.73,0.725c0.463,2.613 -0.476,3.823 -1.431,5.018c3.199,2.505 0.47,-5.866 5.011,-4.306c-12.052,19.182 -27.776,43.359 -39.333,67.404c-1.775,1.314 -4.476,1.733 -6.443,2.874c0.211,2.285 3.792,1.428 4.299,-0.006c-9.212,25.885 -21.51,54.888 -27.849,86.024c25.801,1.639 54.699,0.173 81.691,0.621c2.821,-0.917 1.869,1.951 2.868,2.862c1.941,0.504 -0.511,-3.36 1.431,-2.868c12.897,-0.013 25.797,-0.029 38.697,-0.044c1.894,0.223 -0.681,-4.016 2.146,-2.872c0.089,1.286 -0.879,1.51 -0.715,2.872c8.362,-0.01 16.72,-0.022 25.082,-0.032c4.45,-9.871 7.961,-20.682 12.862,-30.109c2.386,-0.003 4.778,-0.006 7.164,-0.009c0.161,-3.495 0.315,-11.063 5.72,-11.476c-0.598,-2.502 -2.392,-3.816 -2.159,-7.145c24.389,-43.437 60.152,-75.519 103.788,-99.74c2.956,-0.568 1.352,3.432 4.302,2.865c2.194,-1.166 -2.392,-3.445 -0.003,-5.015c47.96,-28.678 145.658,-39.406 204.792,-13.719c-0.807,0.056 -1.627,0.567 -2.014,1.314c0.895,0.939 3.401,1.087 3.568,-0.63c1.462,0.655 2.896,1.339 4.311,2.042c25.703,5.342 47.056,21.218 67.397,34.316c0.706,1.702 1.261,3.549 1.444,5.73c2.241,1.188 2.008,-3.571 2.865,-1.434c40.043,30.166 70.095,70.354 88.277,122.43c50.403,-0.057 100.8,-0.113 151.2,-0.161c-12.491,-63.296 -40.459,-117.292 -73.994,-161.858c1.484,-3.792 -3.231,-3.88 -3.593,-9.329c1.311,-0.832 7.394,4.355 7.879,-1.438c38.061,46.52 65.67,103.485 81.174,172.6c27.798,2.219 61.992,-3.728 83.837,1.337c0.012,0.012 1.721,0.516 2.152,0.709" style="fill:#252f28;fill-rule:nonzero;"/><path d="M974.614,547.759c1.506,2.912 4.857,7.057 2.159,10.032c-2.477,0.568 -3.029,-0.791 -4.302,-1.434c1.878,-3.278 -0.063,-6.026 2.143,-8.598" style="fill:#252f28;fill-rule:nonzero;"/><path d="M841.233,464.074c0.713,-2.389 -1.005,-2.341 -2.871,-2.146c-0.205,1.882 0.99,2.357 2.871,2.146m2.172,17.912c-1.359,0.167 -1.582,-0.788 -2.868,-0.713c-0.568,2.301 -2.118,3.631 -2.14,6.452c3.504,-0.076 4.428,-2.726 5.008,-5.739m25.709,-75.986c-0.615,-2.254 -2.767,-2.969 -5.024,-3.574c-0.129,2.997 3.41,2.339 5.024,3.574m0.718,3.612c-1.557,-1.79 -7.734,0.473 -5.011,2.843c0.924,-1.705 4.658,-0.605 5.011,-2.843m-1.446,-10.776c0.208,-1.462 1.941,-1.406 2.149,-2.868c-3.315,1.153 -5.912,0.498 -8.601,-0.709c0.407,2.94 2.931,3.776 6.452,3.577m20.143,67.35c0.268,-2.197 -2.333,-1.507 -3.584,-2.159c-0.331,2.235 1.535,2.279 3.584,2.159m6.448,0.693c0.224,-1.642 -0.123,-2.745 -0.734,-3.583c-4.674,-0.438 -3.937,4.516 0.734,3.583m37.166,-86.03c0.091,3.312 5.944,2.263 7.164,0.709c-1.879,-0.731 -4.403,-0.848 -7.164,-0.709m11.488,22.916c-1.346,-1.371 0.419,-1.301 -0.003,-3.583c-1.819,0.091 -2.777,1.062 -2.862,2.868c2.294,-1.45 2.244,2.849 2.865,0.715m0.737,17.196c-3.791,-0.085 -3.785,7.259 0.007,7.167c-0.927,-2.073 -0.927,-5.093 -0.007,-7.167m0.735,15.063c0.327,-2.257 -1.542,-2.298 -3.587,-2.162c-0.804,2.896 2.2,3.536 3.587,2.162m26.556,37.934c0.01,6.458 0.016,12.9 0.026,19.346c-17.915,0.019 -35.833,0.041 -53.75,0.063c-0.004,-6.433 -0.013,-12.897 -0.016,-19.349c4.056,-0.003 8.119,-0.013 12.178,-0.013c1.173,-23.171 1.138,-51.357 -0.085,-74.523c-3.58,2.15 -4.485,7.259 -5.717,10.754c-9.588,27.048 -18.942,55.572 -28.568,83.156c-3.943,-0.356 -9.389,0.804 -12.181,-0.703c1.04,-1.582 5.537,0.262 4.292,-3.574c-0.734,-1.598 -4.79,-0.574 -4.295,1.421c-12.768,-29.049 -20.824,-62.824 -34.503,-90.962c-3.274,21.844 -0.454,49.923 -1.346,74.523l14.331,-0.016c0.004,6.452 0.016,12.9 0.023,19.349c-15.05,0.034 -30.097,0.034 -45.143,0.053c-0.01,-6.451 -0.016,-12.9 -0.025,-19.351c4.302,-0.004 8.601,0.009 12.897,-0.013c1.648,-23.396 0.182,-49.918 0.633,-74.523c-4.538,0.006 -9.08,0.028 -13.615,0.012c-0.01,-6.445 -0.013,-12.878 -0.026,-19.345c17.918,-0.003 35.83,-0.038 53.747,-0.06c6.896,22.756 15.636,43.63 23.008,65.909c8.362,-21.473 15.649,-44.039 23.569,-65.966c13.616,-0.012 27.228,-0.028 40.844,-0.047c3,-0.599 1.569,3.208 2.868,4.299c1.513,-0.643 0.252,-4.034 2.149,-4.305c2.865,-0.004 5.733,-0.004 8.601,0.009c-1.535,5.853 3.316,18.091 -2.846,19.336c-3.24,-1.267 -1.503,-6.313 -5.027,-8.595c-3.681,2.364 1.772,5.61 0.725,7.167c-1.191,3.121 -8.421,0.189 -9.313,3.59c-1.144,2.821 3.095,0.252 2.871,2.146c0.028,23.409 0.054,46.82 0.082,70.228c4.535,-0.009 9.074,-0.009 13.612,-0.016" style="fill:#252f28;fill-rule:nonzero;"/><path d="M968.172,553.53c-0.955,2.689 -1.775,3.943 -0.709,7.139c-4.706,-0.873 -3.023,-4.838 -2.163,-8.598c1.958,-0.527 1.45,1.418 2.872,1.459" style="fill:#252f28;fill-rule:nonzero;"/><path d="M966.014,547.783c0.224,1.643 -0.116,2.733 -0.715,3.584c-2.137,-0.057 -1.913,-4.264 0.715,-3.584" style="fill:#252f28;fill-rule:nonzero;"/><path d="M958.858,557.808c0.93,3.193 3.889,6.342 2.165,10.032c-3,0.391 -4.853,-0.397 -6.454,-1.424c3.372,-3.291 -1.482,-5.087 -0.01,-7.883c0.854,-0.822 2.537,-0.81 4.299,-0.725" style="fill:#252f28;fill-rule:nonzero;"/><path d="M955.294,574.294c0.63,4.046 -2.83,5.124 -0.706,8.604c-3.24,-1.091 -1.548,2.745 -2.862,3.58c-1.465,-0.684 -3.404,-0.889 -3.583,-2.858c2.263,-3.556 1.963,-4.857 -0.013,-8.598c0.586,-0.599 1.954,-0.435 2.146,-1.434c2.314,-0.65 1.006,2.341 2.156,2.861c1.374,-0.283 0.561,-2.78 2.862,-2.155" style="fill:#252f28;fill-rule:nonzero;"/><path d="M947.448,348.644c0.854,-0.015 1.718,-0.028 2.569,-0.047c-1.251,0.224 -2.077,0.224 -2.569,0.047" style="fill:#252f28;fill-rule:nonzero;"/><path d="M940.243,572.164c-2.449,0.299 -4.088,-0.193 -3.58,-2.862c0.832,0.12 1.263,-0.167 1.427,-0.69c2.181,-0.297 1.497,2.297 2.153,3.552" style="fill:#252f28;fill-rule:nonzero;"/><path d="M938.775,540.637c2.244,3.851 4.195,15.144 -1.412,16.484c-1.352,-4.983 1.037,-7.246 -0.012,-10.748c-1.803,1.538 -5.27,1.437 -5.015,5.021c-0.406,-2.468 -3.3,-2.437 -3.59,-5.015c2.868,-3.75 9.831,0.842 10.029,-5.742" style="fill:#252f28;fill-rule:nonzero;"/><path d="M928.058,569.311c0,0.491 0.003,0.955 0.003,1.434c-0.615,-0.117 -0.672,0.286 -0.712,0.718c-0.483,-0.003 -0.959,0 -1.438,0c0.136,-0.614 -0.283,-0.655 -0.721,-0.715c0.006,-0.479 0.006,-0.958 0.003,-1.434c0.611,0.151 0.668,-0.284 0.715,-0.716l1.434,-0.003c-0.132,0.612 0.284,0.675 0.716,0.716" style="fill:#252f28;fill-rule:nonzero;"/><path d="M922.315,560.003c1.213,2.146 4.333,2.354 4.305,5.73c-0.7,0.025 -0.545,0.879 -0.712,1.431c-2.03,0.598 -1.851,-0.999 -3.584,-0.703c-0.003,-2.159 -0.003,-4.309 -0.009,-6.458" style="fill:#252f28;fill-rule:nonzero;"/><path d="M918.021,562.875c3.331,2.89 5.087,7.337 5.748,12.89c-1.695,-3.788 -4.456,-6.517 -7.892,-8.572c0.637,-1.526 1.116,-3.196 2.144,-4.318" style="fill:#252f28;fill-rule:nonzero;"/><path d="M918.064,600.85c2.238,-0.328 3.193,0.627 2.871,2.865c-2.297,1.106 -3.151,0.258 -2.871,-2.865" style="fill:#252f28;fill-rule:nonzero;"/><path d="M917.334,590.105c0.514,2.657 -3.06,1.245 -3.577,2.871c-2.304,-1.654 1.251,-3.482 3.577,-2.871" style="fill:#252f28;fill-rule:nonzero;"/><path d="M907.276,566.467c0.003,0.955 0.003,1.913 0.003,2.865c-2.761,0.573 -2.767,-3.423 -0.003,-2.865" style="fill:#252f28;fill-rule:nonzero;"/><path d="M901.572,591.554c2.733,-0.539 1.557,4.658 -0.712,3.587c-0.227,-1.658 0.12,-2.736 0.712,-3.587" style="fill:#252f28;fill-rule:nonzero;"/><path d="M892.222,563.619c0.139,2.049 0.098,3.912 -2.143,3.587c-0.899,-2.058 -0.363,-3.275 2.143,-3.587" style="fill:#252f28;fill-rule:nonzero;"/><path d="M888.694,607.35c2.553,-0.183 3.748,1.012 3.584,3.565c-1.787,1.825 -2.818,-0.82 -5.015,-0.709c0.01,-1.422 1.955,-0.914 1.431,-2.856" style="fill:#252f28;fill-rule:nonzero;"/><path d="M889.415,613.069c1.257,0.652 2.493,1.32 2.153,3.596c-1.652,0.208 -2.749,-0.133 -3.584,-0.728c0.372,-1.066 1.059,-1.809 1.431,-2.868" style="fill:#252f28;fill-rule:nonzero;"/><path d="M885.841,621.672c0.394,3.281 -2.697,3.032 -2.14,6.451c-1.062,-0.375 -1.806,-1.062 -2.868,-1.431c0.322,-3.013 0.889,-5.792 5.008,-5.02" style="fill:#252f28;fill-rule:nonzero;"/><path d="M883.638,572.228c3.268,3.206 -1.04,6.033 1.443,10.029c-2.225,0.643 -3.341,2.395 -5.733,2.878c-0.195,-3.303 2.581,-3.634 3.577,-5.74c0.539,-2.209 -1.969,-1.371 -1.43,-3.58c-0.35,-2.26 1.916,-1.897 2.143,-3.587" style="fill:#252f28;fill-rule:nonzero;"/><path d="M884.419,629.569c-0.252,1.898 -1.881,2.405 -3.58,2.868c-0.426,-2.656 1.916,-4.45 3.58,-2.868" style="fill:#252f28;fill-rule:nonzero;"/><path d="M877.864,538.569c0.391,1.569 -1.371,1.018 -1.431,2.137c-0.776,-0.164 -0.492,-1.412 -1.431,-1.431c-0.318,-1.144 2.663,-2.405 2.862,-0.706" style="fill:#252f28;fill-rule:nonzero;"/><path d="M870.738,572.244c-2.285,-0.608 -2.209,1.138 -3.58,1.437c-0.268,2.657 2.909,1.863 2.152,5.015c-0.847,0.822 -2.537,0.803 -4.302,0.734c-1.629,-4.655 -3.079,-20.269 5.005,-15.065c0.104,2.014 -2.033,1.793 -2.862,2.868c-0.208,3.076 3.376,2.354 3.587,5.011" style="fill:#252f28;fill-rule:nonzero;"/><path d="M865.026,589.449c1.434,0.01 2.865,-0.003 4.299,-0.006c-1.091,2.496 -2.998,4.17 -2.14,8.601c-0.836,-0.117 -1.271,0.167 -1.431,0.731c-3.3,0.665 -2.963,-2.307 -4.302,-3.577c1.862,-1.258 3.353,-2.868 3.574,-5.749" style="fill:#252f28;fill-rule:nonzero;"/><path d="M862.169,598.049c0.851,4.582 -5.09,2.707 -6.448,1.443c1.49,-2.587 3.344,-1.516 6.448,-1.443" style="fill:#252f28;fill-rule:nonzero;"/><path d="M857.882,610.954c1.09,-1.09 4.91,-1.273 4.302,1.428c-2.03,-0.599 -1.85,1.018 -3.584,0.722c-0.368,-0.583 -0.743,-1.166 -0.718,-2.15" style="fill:#252f28;fill-rule:nonzero;"/><path d="M860.72,585.869c0.346,3.272 -3.341,1.961 -5.012,1.438c0.353,-2.402 3.773,-3.824 5.012,-1.438" style="fill:#252f28;fill-rule:nonzero;"/><path d="M854.97,569.397c1.362,1.027 3.183,1.607 2.871,4.295c-2.452,0.675 -4.431,2.245 -7.167,0.725c-0.87,-3.971 3.521,-2.694 4.296,-5.02" style="fill:#252f28;fill-rule:nonzero;"/><path d="M855.675,558.646c4.731,-0.243 5.251,10.949 0.013,10.747c-2.947,-3.054 1.1,-5.493 -0.013,-10.747" style="fill:#252f28;fill-rule:nonzero;"/><path d="M762.907,273.572c0.202,-1.898 -0.274,-3.086 -2.155,-2.881c-0.041,0.451 -0.104,0.854 -0.713,0.718c-0.223,1.882 0.984,2.358 2.868,2.163m12.204,20.051c0.564,-2.777 -3.439,-2.77 -2.868,-0.013c0.952,0.013 1.91,0 2.868,0.013m27.839,-93.188c1.085,-2.257 -0.198,-3.968 -2.158,-5.027c-0.64,1.27 -1.724,2.09 -2.144,3.587c1.274,0.636 1.825,2.007 4.302,1.44m21.577,68.034c2.657,-0.211 4.923,-0.813 5.727,-2.871c-2.017,-2.969 -8.106,-0.605 -5.727,2.871m34.399,5.692c-4.876,2.083 -8.504,5.358 -13.603,7.186c-1.885,-3.372 -3.861,-6.653 -5.743,-10.029c-12.197,2.181 -31.792,-4.813 -43.718,-2.814c-9.402,1.579 -14.706,11.018 -22.913,12.941c1.85,4.34 4.709,7.709 6.461,12.159c-5.566,1.614 -8.759,5.576 -14.325,7.183c-8.358,-14.82 -17.108,-29.242 -25.129,-44.399c5.03,-2.383 9.04,-5.78 14.322,-7.885c1.396,4.327 4.252,7.22 5.746,11.444c10.772,-6.436 24.498,-9.913 27.921,-23.68c1.822,1.04 1.393,4.356 3.587,5.012c1.881,-2.184 1.856,-6.257 3.574,-8.605c2.474,-0.583 2.745,1.075 5.011,0.713c1.986,-3.36 -1.686,-4.208 -0.725,-8.598c1.444,-3.316 7.167,0.813 7.883,-2.159c-0.066,-4 -7.284,-0.829 -9.32,-2.859c1.217,5.434 -3.483,12.427 -9.301,15.062c4.413,-9.442 8.759,-18.939 13.584,-27.962c-1.809,-3.669 -4.006,-6.969 -5.742,-10.741c5.31,-1.844 8.128,-6.206 14.321,-7.18c-0.22,2.61 0.129,4.668 0.725,6.442c3.294,-2.764 8.778,10.562 12.197,16.471c4.145,7.126 8.066,13.052 10.055,17.902c-4.545,2.377 -9.084,4.772 -12.891,7.899c-2.493,-1.806 -3.883,-4.715 -5.021,-7.883c-4.948,7.01 -9.045,14.851 -12.872,22.983c6.959,2.074 18.826,-0.728 25.798,1.371c-0.082,-4.463 -3.452,-5.626 -4.312,-9.311c5.418,-1.755 8.696,-5.638 14.328,-7.167c6.401,12.472 14.52,23.226 20.102,36.504" style="fill:#252f28;fill-rule:nonzero;"/><path d="M839.175,542.902c0.135,2.046 0.094,3.909 -2.147,3.596c-1.342,-1.355 -0.075,-1.815 -0.003,-3.596c0.719,0.013 1.434,-0.003 2.15,0" style="fill:#252f28;fill-rule:nonzero;"/><path d="M739.031,77.961c0.693,3.851 7.722,1.349 10.038,3.571c-0.977,-3.568 -5.14,-3.937 -10.038,-3.571m40.881,30.764c1.479,-0.419 4.974,1.141 4.299,-1.437c-1.894,0.016 -4.226,-0.4 -4.299,1.437m58.822,52.959c-2.853,-0.532 -7.435,-1.094 -10.751,0.728c-28.744,-31.209 -58.109,-61.796 -95.397,-84.448c-1.349,-1.368 0.428,-1.299 -0.007,-3.58c-2.301,-1.444 -2.234,2.839 -2.862,0.718c-46.031,-27.757 -96.547,-51.017 -161.3,-60.003c-1.466,-0.923 -1.813,-2.953 -3.59,-3.577c-2.73,-1.059 -0.129,3.205 -2.865,2.152c-25.277,-2.824 -52.713,-4.195 -80.256,-2.773c3.444,-2.065 -2.711,-7.627 2.855,-8.604c-0.864,-0.94 -0.284,-1.122 0,-2.15c13.149,0.448 28.167,-0.974 40.125,0.671c0.571,2.954 -2.591,2.181 -2.14,5.015c3.987,3.583 8.822,2.052 15.05,2.852c0.009,-4.598 -8.094,-1.632 -10.751,-3.571c-1.856,-3.356 5.175,-1.424 2.146,-3.571c10.928,-0.684 28.628,-1.925 33.68,5.68c3.467,-0.498 -0.911,-3.269 0.716,-3.584c125.449,18.933 211.728,77.13 275.347,158.045" style="fill:#252f28;fill-rule:nonzero;"/><path d="M797.706,623.921c2.109,1.296 2.566,9.954 -2.137,10.036c-0.523,-0.675 -1.301,-1.088 -2.149,-1.431c0.668,-3.6 3.454,-5.125 4.286,-8.605" style="fill:#252f28;fill-rule:nonzero;"/><path d="M793.123,380.291c0.009,6.445 0.016,12.9 0.025,19.346c-4.299,0.006 -8.601,0.015 -12.9,0.015c-3.757,29.4 8.324,70.414 -8.5,86.734c-12.982,12.597 -46.306,11.863 -58.758,-1.384c-15.082,-16.027 -4.854,-55.332 -7.978,-84.527c-2.887,-1.67 -8.828,-0.262 -12.9,-0.722c-0.009,-6.445 -0.012,-12.897 -0.025,-19.333c16.96,-0.028 33.919,-0.05 50.876,-0.069c0.012,6.461 0.019,12.897 0.025,19.345c-3.584,0.01 -7.167,0.007 -10.748,0.026c4.022,21.198 -9.59,72.897 11.555,75.932c28.741,4.132 13.288,-50.327 17.104,-75.261c-1.922,-1.639 -6.911,-0.249 -10.029,-0.706c-0.009,-6.445 -0.015,-12.9 -0.025,-19.345c14.092,-0.016 28.19,-0.032 42.278,-0.051" style="fill:#252f28;fill-rule:nonzero;"/><path d="M698.329,199.107c2.313,-0.316 6.196,0.932 6.448,-1.425c-1.374,-0.195 -5.868,-1.128 -6.448,1.425m9.329,10.022c-1.576,-1.355 -4.557,0.214 -4.299,2.868c1.941,-0.447 3.36,-1.418 4.299,-2.868m25.009,-60.221c0.082,-2.477 -3.738,-1.04 -4.302,-2.864c-0.236,2.631 2.613,2.165 4.302,2.864m5.73,2.144c0.003,-0.955 0,-1.91 0,-2.868c-2.045,-0.13 -3.911,-0.086 -3.58,2.155c0.835,0.596 1.925,0.936 3.58,0.713m23.67,16.452c-0.902,-3.133 -0.211,-3.18 0.712,-5.705c-2.947,-0.173 -4.586,-1.68 -2.159,-3.609c-5.61,0.423 -2.275,8.214 1.447,9.314m15.746,-15.765c-7.095,10.801 -16.071,19.752 -23.613,30.105c-0.583,-2.386 -12.5,-6.719 -12.91,-10.016c-0.51,-4.091 12.945,-12.497 13.594,-17.212c-2.15,-2.868 -5.345,-4.683 -7.889,-7.157c-0.343,-2.254 2.194,-1.633 1.428,-4.302c-4.403,-0.098 -6.209,2.395 -8.592,4.311c-0.469,4.567 -4.198,8.497 -7.151,12.188c-8.737,10.937 -19.503,22.535 -27.909,34.433c3.442,3.007 6.723,6.168 10.757,8.582c-3.082,4.558 -7.23,8.069 -10.016,12.91c-14.149,-10.688 -27.134,-22.538 -41.6,-32.914c3.804,-3.35 5.871,-12.459 10.016,-12.91c2.855,-0.302 7.939,7.53 10.76,8.586c9.9,-11.343 19.232,-23.279 28.621,-35.145c1.491,-1.567 2.32,0.624 3.584,-0.722c-0.215,-6.657 4.872,-8.025 7.151,-12.188c-1.882,-4.567 -7.082,-5.815 -10.042,-9.304c-5.039,4.989 -9.348,10.729 -13.596,16.496c-5.393,-2.247 -9.011,-6.275 -12.91,-10.016c6.843,-10.593 15.819,-19.052 22.895,-29.406c23.55,16.812 44.635,36.088 67.422,53.681" style="fill:#252f28;fill-rule:nonzero;"/><path d="M736.739,573.832c-0.532,2.657 -3.867,0.867 -3.583,-1.428c1.774,-0.091 2.225,1.128 3.583,1.428" style="fill:#252f28;fill-rule:nonzero;"/><path d="M693.838,653.422c-1.028,3.12 -7.514,-1.665 -5.021,-4.296c2.821,0.299 3.3,2.909 5.021,4.296" style="fill:#252f28;fill-rule:nonzero;"/><path d="M691.091,756.612c-2.329,0.18 -3.451,-0.822 -3.587,-2.849c2.326,-0.183 3.448,0.832 3.587,2.849" style="fill:#252f28;fill-rule:nonzero;"/><path d="M690.363,746.58c0.139,2.061 0.095,3.908 -2.143,3.587c0.01,-1.686 -1.245,-2.109 -0.725,-4.299c1.283,-0.092 1.51,0.879 2.868,0.712" style="fill:#252f28;fill-rule:nonzero;"/><path d="M632.833,570.4c-0.94,2.446 -5.762,2.156 -5.012,4.274c-10.615,-0.643 -22.481,1.371 -31.53,-2.112c-1.509,0.64 -3.177,1.122 -4.299,2.156c-7.523,-0.797 -23.285,0.58 -35.11,0.038c-2.749,0.139 -0.256,-0.583 -0.719,-2.15c-2.149,0.007 -4.299,0.007 -6.452,0.01c1.488,-4.419 -13.079,-4.362 -9.316,0.006c-8.507,1.762 -7.35,-9.512 -1.444,-10.029c-0.762,-1.626 -1.632,-3.145 -2.871,-4.296c3.899,-2.077 10.64,-3.145 15.047,-0.731c5.279,-3.47 21.529,-0.804 30.096,-0.034c1.078,0.088 1.585,-1.422 2.868,-1.438c1.339,-0.015 2.238,1.475 2.868,1.431c11.608,-0.791 26.254,-2.597 38.691,-1.462c3.88,0.337 6.691,3.735 10.032,-0.029c7.076,1.737 11.734,0.363 20.779,-0.009c0.152,0.391 -1.071,0.895 -1.43,0.706c7.992,4.526 24.133,-4.378 32.961,0.687c-0.06,7.126 1.191,6.871 0.019,12.884c-4.063,-1.188 -2.358,3.379 -4.299,4.306c-5.954,0.948 -8.031,-2.723 -12.176,0.016c-7.967,-4.545 -20.139,2.59 -32.967,0.037c-1.091,-2.25 -5.733,-0.917 -5.736,-4.261" style="fill:#252f28;fill-rule:nonzero;"/><path d="M672.484,778.846c0.97,0.22 0.602,1.805 0.721,2.864c-0.718,0.019 -1.434,0.004 -2.149,0.007c-0.826,-2.257 1.119,-1.737 1.428,-2.871" style="fill:#252f28;fill-rule:nonzero;"/><path d="M668.549,474.308c0.009,6.446 0.019,12.897 0.025,19.346c-20.064,0.025 -40.128,0.044 -60.195,0.085c-0.007,-6.461 -0.013,-12.916 -0.023,-19.361c5.018,-0.007 10.036,-0.013 15.05,-0.016c1.648,-23.414 0.183,-49.924 0.63,-74.527c-5.254,0.023 -10.523,0.01 -15.765,0.019c-0.006,-6.448 -0.015,-12.9 -0.022,-19.329c20.064,-0.044 40.116,-0.07 60.193,-0.089c0.009,6.446 0.015,12.901 0.025,19.346c-5.257,0.006 -10.511,0.009 -15.765,0.019c-1.649,23.408 -0.183,49.924 -0.631,74.526c5.494,-0.009 10.987,0 16.478,-0.019" style="fill:#252f28;fill-rule:nonzero;"/><path d="M498.144,592.739c0.416,-0.435 1.667,-3.388 -0.006,-3.58c-0.627,1.056 -1.075,2.266 -2.868,2.149c-0.709,2.153 1.601,1.267 2.874,1.431m10.741,-5.03c51.551,-0.044 107.485,-0.11 159.798,-0.186c-10.423,2.298 -21.555,19.538 -35.101,11.507c-1.822,0.807 -1.8,3.451 -5.012,2.875c-30.499,0.753 -79.465,-0.268 -113.22,-1.302c-4.18,-0.133 -8.327,1.62 -12.182,0.728c-5.09,-1.176 -7.832,-7.605 -12.191,-8.554c-0.618,-2.313 1.132,-2.241 1.428,-3.615c-2.537,-1.251 -3.688,2.408 -4.296,0.722c4.157,-3.918 13.386,-2.166 20.776,-2.175" style="fill:#252f28;fill-rule:nonzero;"/><path d="M630.117,79.518c1.09,2.257 5.105,1.412 5.726,-0.722c-0.712,-0.624 -6.209,-1.992 -5.726,0.722m8.623,20.052c0.337,-2.563 -4.649,-4.277 -4.302,-0.71c2.177,-0.885 2.789,-0.551 4.302,0.71m-0.731,-12.179c-1.091,1.034 -0.7,3.732 1.434,3.584c-0.312,-1.359 0.967,-4.315 -1.434,-3.584m31.514,-11.501c-1.5,5.421 -3.87,9.979 -5.714,15.056c-4.866,-1.103 -8.901,-3.038 -12.907,-5.001c-8.979,18.239 -16.197,38.234 -23.578,58.083c1.957,1.85 5.09,2.531 7.886,3.555c-0.476,0.962 -1.535,1.334 -2.865,1.441c1.822,2.357 5.865,-1.693 7.886,0.706c-2.087,5.288 -6.083,8.428 -5.718,14.34c-17.678,-5.474 -33.308,-13.01 -50.182,-19.276c1.516,-5.418 4.274,-9.587 5.714,-15.068c4.378,1.591 8.661,3.271 12.903,4.998c9.295,-17.924 15.29,-39.141 24.297,-57.352c-3.807,-2.635 -8.796,-4.094 -13.622,-5.718c1.428,-5.493 3.994,-9.855 5.718,-15.052c17.394,5.758 32.945,13.366 50.182,19.288" style="fill:#252f28;fill-rule:nonzero;"/><path d="M650.126,653.471c0.003,1.446 0.003,2.865 0.006,4.299c-1.509,-3.029 -6.855,-2.216 -7.888,-5.708c3.057,-2.377 3.911,2.43 7.882,1.409" style="fill:#252f28;fill-rule:nonzero;"/><path d="M656.123,261.512c-4.737,6.95 -11.318,12.075 -16.458,18.634c0.454,8.629 2.105,16.074 2.89,24.366c-7.883,-1.308 -13.893,-9.556 -21.505,-9.994c-7.989,-0.502 -14.381,7.914 -22.204,10.044c-1.516,-7.227 1.148,-16.515 2.125,-23.651c-4.684,-7.268 -12.317,-11.573 -16.506,-19.329c8.043,-1.04 15.658,-2.509 22.923,-4.309c4.995,-6.25 8.613,-13.852 12.159,-21.526c4.696,6.53 8.362,14.098 12.204,21.482c8.188,2.528 14.041,3.476 24.372,4.283" style="fill:#252f28;fill-rule:nonzero;"/><path d="M627.058,533.115c-0.57,-2.765 3.426,-2.765 2.865,-0.004c-0.952,0 -1.913,0.004 -2.865,0.004" style="fill:#252f28;fill-rule:nonzero;"/><path d="M614.325,678.591c2.569,-0.419 2.184,2.121 2.156,4.299c-1.494,-0.656 -2.181,-2.118 -2.156,-4.299" style="fill:#252f28;fill-rule:nonzero;"/><path d="M630.013,611.232c-6.533,4.919 -13.215,9.704 -20.048,14.343c-42.29,0.586 -87.228,-0.618 -131.148,-0.57c-16.887,0.019 -35.627,3.744 -52.297,0.778c-2.386,-0.413 -3.968,0.035 -5.017,-2.862c-4.725,4.069 -22.252,4.583 -25.079,0.035c-3.183,0.088 -0.646,-3.722 -0.006,-4.305c-6.197,0.649 -13.6,-1.579 -15.775,-7.145c15.289,-0.022 30.575,-0.022 45.861,-0.054c2.405,-0.734 1.126,2.222 1.441,3.584c8.012,-5.295 29.986,-4.261 38.694,-2.197c51.109,-3.089 105.127,-0.747 163.374,-1.607" style="fill:#252f28;fill-rule:nonzero;"/><path d="M593.677,172c-0.003,0.028 0,0.075 -0.016,0.104c-0.507,-0.237 -1.03,-0.464 -1.55,-0.688c0.564,-0.041 1.134,0.12 1.566,0.584" style="fill:#252f28;fill-rule:nonzero;"/><path d="M446.385,450.201c1.135,0.384 3.839,2.754 5.015,0.709c-1.359,-0.741 -4.123,-3.713 -5.015,-0.709m59.502,36.475c-3.019,-2.326 -4.447,1.9 -5.714,3.59c1.374,0.296 1.298,2.042 3.584,1.427c0.778,-1.597 1.175,-3.583 2.13,-5.017m43.671,-48.058c3.776,-0.051 8.541,0.882 7.873,-3.581c-2.414,-1.651 -8.236,0.13 -10.744,-1.434c0.239,2.389 2.931,2.339 2.871,5.015m33.721,35.801c0.006,6.436 0.012,12.884 0.022,19.348c-17.915,0.007 -35.826,0.029 -53.744,0.051c-0.01,-6.452 -0.016,-12.888 -0.025,-19.321c4.302,-0.034 8.604,-0.025 12.9,-0.047c-0.029,-24.839 -0.054,-49.681 -0.082,-74.52c-5.138,1.078 -3.603,8.828 -9.31,9.323c0.23,1.686 3.41,0.416 2.874,2.881c-9.837,26.913 -19.283,54.229 -28.571,81.703c-4.059,0.025 -8.119,0.012 -12.181,0.022c-11.353,-31.436 -21.019,-64.545 -34.503,-93.838c-4.251,17.237 1.453,44.399 -2.798,61.63c2.08,2.698 1.342,8.226 1.453,12.9c6.146,-0.189 9.269,0.451 14.327,-0.019c-0.469,6.225 0.974,14.331 -0.693,19.365c-4.208,0.11 -5.701,0.33 -3.587,-2.862c-8.635,5.919 -27.644,1.522 -40.84,2.893c-0.006,-6.442 -0.016,-12.881 -0.022,-19.342c4.299,-0.007 8.598,-0.013 12.9,-0.016c1.642,-23.408 0.18,-49.921 0.63,-74.527c-4.541,0.01 -9.077,0.013 -13.618,0.016c-0.007,-6.448 -0.013,-12.897 -0.019,-19.345c17.911,-0.022 35.826,-0.041 53.74,-0.06c7.013,22.62 15.447,43.825 23.008,65.897c8.368,-21.479 15.623,-44.059 23.572,-65.957c18.148,0.013 36.302,-0.038 54.459,-0.06c0.004,6.452 0.013,12.897 0.019,19.346c-4.296,0.009 -8.601,0.028 -12.897,0.012c-1.645,23.411 -0.179,49.927 -0.63,74.527c4.542,-0.003 9.074,-0.01 13.616,0" style="fill:#252f28;fill-rule:nonzero;"/><path d="M498.195,638.598c28.898,-1.705 60.905,-0.309 91.007,-0.791c-16.112,13.918 -43.548,13.291 -72.364,11.517c-1.182,-1.863 1.071,-4.312 -0.725,-6.449c-3.162,0.186 -4.488,2.2 -8.595,1.447c-1.39,-3.596 -5.516,-4.52 -9.323,-5.724" style="fill:#252f28;fill-rule:nonzero;"/><path d="M509.765,108.321c1.387,1.387 4.39,0.741 3.577,-2.153c-2.253,-0.343 -2.921,0.899 -3.577,2.153m4.277,-15.037c0.555,-1.469 -1.434,-5.449 -3.584,-6.464c-0.715,1.434 -1.235,3.063 -2.865,3.602c-1.493,-0.428 -2.045,-1.787 -4.302,-1.44c2.601,2.417 6.156,3.873 10.751,4.302m19.386,30.058c1.422,1.327 5.27,1.053 4.299,-2.155c-2.54,-0.372 -3.687,0.617 -4.299,2.155m18.634,0.694c0.324,-2.241 -1.542,-2.279 -3.587,-2.143c-0.328,2.237 1.538,2.281 3.587,2.143m12.903,4.286c4.939,-0.318 2.975,-7.526 5.002,-10.757c-1.031,-0.161 -1.21,-1.179 -2.15,-1.431c-0.4,1.989 -2.773,2.005 -4.299,2.875c1.066,2.521 1.872,5.295 1.447,9.313m8.557,-35.126c-1.207,15.024 -2.789,29.667 -3.53,45.152c-29.097,-1.444 -56.095,-4.999 -85.28,-6.354c0.769,-5.194 1.15,-10.776 1.412,-16.477c3.542,1.229 8.96,0.583 12.906,1.415c2.537,-8.917 1.882,-21.019 3.543,-30.818c-0.048,-3.508 2.105,1.954 3.58,-0.719c0.088,-2.925 -3.152,-1.399 -3.583,-2.146c0.602,-9.66 1.903,-18.621 2.118,-28.669c-2.632,-0.709 -3.931,-2.738 -7.171,-2.852c0.713,-1.437 3.165,-1.141 2.865,-3.59c-0.457,-1.535 -4.406,-0.649 -5.017,0.007c-1.047,1.525 0.271,4.866 -2.147,5.02c-3.407,-3.325 -0.416,-12.21 -0.019,-16.483c16.916,1.698 34.115,3.114 51.601,4.242c-1.053,4.91 -0.362,11.57 -1.415,16.48c-3.584,-1.188 -9.109,-0.435 -12.9,-1.415c-2.44,10.212 -2.468,22.828 -3.543,34.399c-2.194,0.523 -2.613,-0.728 -4.302,-0.716c-1.1,2.26 -0.457,4.006 0.725,5.736c1.926,0.489 1.387,-1.481 2.149,-2.155c1.69,6.24 -0.598,14.662 -0.696,21.517c-0.006,3.221 -3.915,-3.404 -6.446,-0.01c-1.626,1.002 -0.264,4.986 -0.709,7.164c4.898,0.681 4.176,-1.447 3.574,-5.018c7.379,4.082 20.591,2.323 30.103,4.265c3.303,-7.678 2.291,-19.664 3.549,-29.381c6.464,0.218 12.169,1.195 18.633,1.406" style="fill:#252f28;fill-rule:nonzero;"/><path d="M474.083,235.195c-0.826,-3.013 4.201,-3.855 1.425,-6.449c0.302,2.478 -4.142,3.915 -1.425,6.449m34.348,-38.017c-3.309,0.75 -9.985,-1.853 -10.026,2.159c1.778,-0.107 3.477,-0.135 3.584,1.428c-4.649,6.351 4.998,-1.122 6.442,-3.587m52.344,25.032c-5.531,9.994 -17.52,19.714 -25.765,29.396c1.966,12.374 2.833,25.854 5.061,37.972c-10.842,-3.258 -24.404,-9.975 -35.132,-15.724c-11.8,5.421 -23.531,10.88 -35.092,16.522c-0.381,-6.597 -0.665,-19.254 4.274,-22.932c-4.681,-5.027 -0.347,-16.005 2.846,-18.637c-1.362,-1.355 -3.183,0.467 -2.865,2.872c-8.967,-8.948 -19.907,-19.743 -26.547,-28.634c12.21,-2.358 24.24,-4.926 36.538,-7.208c7.586,-10.322 13.379,-22.438 19.308,-34.417c7.999,10.154 13.221,23.092 20.102,34.373c12.916,1.639 24.189,4.926 37.272,6.417" style="fill:#252f28;fill-rule:nonzero;"/><path d="M390.63,570.649c1.189,-4.062 -3.375,-2.354 -4.305,-4.28c0,1.419 0.003,2.853 0.006,4.299c1.434,-0.015 2.865,-0.003 4.299,-0.019m10.029,-5.729c3.492,-0.108 4.545,-2.635 8.592,-2.175c-0.835,-2.014 -1.484,-4.252 -4.302,-4.296c-1.387,2.2 -2.786,4.381 -4.29,6.471m27.95,3.536c-1.837,0.791 -3.423,-2.175 -4.302,0.003c1.346,0.596 3.719,2.641 4.302,-0.003m94.584,-1.545c0.265,-3.12 -2.051,-3.684 -2.159,-6.445c-2.177,0.451 -6.168,-0.904 -7.163,0.728c2.956,2.055 6.394,3.634 9.322,5.717m3.571,-9.319c-2.458,4.185 4.438,4.431 2.878,10.032c-0.924,0.986 -3.12,0.718 -5.015,0.722c0,1.43 0.007,2.88 0.004,4.295c-7.401,0.461 -17.385,5.037 -23.648,0.029c-6.802,4.872 -17.212,0.633 -25.075,0.031c0.179,1.491 3.148,0.193 3.58,1.425c-3.666,2.455 -5.15,-3.41 -10.748,-1.418c-0.999,0.255 -0.059,1.27 0.722,1.434c-6.688,1.676 -16.487,0.274 -24.366,0.747c-4.186,-6.134 -11.463,3.873 -15.768,-2.134c-2.824,-0.908 -1.727,2.105 -3.596,2.152c-2.374,-0.715 -4.044,-2.158 -7.152,-2.14c-0.003,-1.894 0.265,-4.091 -0.725,-5.017c-1.594,0.315 -0.277,3.542 -0.706,5.017c-13.004,-0.296 -24.637,0.117 -39.412,0.048c1.494,1.878 3.016,0.4 4.299,1.424c-5.491,1.683 -14.089,0.259 -20.78,0.741c-0.208,-1.16 0.675,-1.236 0.715,-2.146c-3.659,-0.848 -5.865,-0.098 -5.733,2.152c-1.894,-0.009 -4.491,0.678 -3.583,-2.127c-8.062,-2.276 -11.668,4.211 -17.871,2.168c0.615,0.003 -0.851,-4.702 -2.909,-2.159c1.113,-5.336 3.212,-9.679 4.999,-14.34c16.862,-3.631 37.736,0.287 54.456,-2.194c2.9,2.339 15.86,2.503 21.498,-0.041c1.838,-0.034 0.883,0.536 0.719,1.431c31.508,-4.901 67.199,2.997 98.168,-1.529c-2.641,2.957 10.794,0.716 15.049,1.397" style="fill:#252f28;fill-rule:nonzero;"/><path d="M496.764,640.75c1.869,2.909 5.708,3.848 5.742,8.592c-17.974,-1.712 -37.824,3.999 -55.893,0.781c-9.254,-1.645 -16.266,-9.925 -24.373,-11.419c3.893,-1.742 11.255,-0.791 13.616,1.4c4.264,-3.458 15.043,-2.165 26.509,-2.178c14.495,-0.016 24.531,-0.18 34.399,2.824" style="fill:#252f28;fill-rule:nonzero;"/><path d="M486.679,593.469c2.049,0.624 6.108,2.13 5.739,7.157c-24.779,2.118 -51.528,1.435 -79.537,0.814c-3.691,-0.911 1.935,-3.398 1.427,-5.74c-0.841,-3.218 -4.065,-4.053 -4.314,-7.876c25.564,-0.016 51.118,-0.06 76.679,-0.072c0,1.897 0.003,3.804 0.006,5.717" style="fill:#252f28;fill-rule:nonzero;"/><path d="M471.67,7.326c-0.016,1.693 1.242,2.106 0.718,4.299c-1.431,0.019 -2.865,0.003 -4.299,0.006c-0.819,-0.851 -0.81,-2.537 -0.721,-4.295c1.434,-0.004 2.865,-0.004 4.302,-0.01" style="fill:#252f28;fill-rule:nonzero;"/><path d="M470.519,250.978c2.329,1.61 -1.081,5.897 -2.865,3.571c-0.303,-2.446 2.149,-2.15 2.865,-3.571" style="fill:#252f28;fill-rule:nonzero;"/><path d="M387.216,94.846c0.561,-2.761 -3.436,-2.755 -2.868,0.006c0.955,-0.003 1.913,-0.003 2.868,-0.006m9.997,-27.956c2.213,1.103 2.203,-4.674 -0.003,-3.571c0,1.185 0.003,2.373 0.003,3.571m2.919,45.858c-0.905,2.417 3.634,2.953 4.302,1.428c-1.343,-0.568 -2.626,-1.195 -4.302,-1.428m15.752,-13.634c-4.387,-8.756 -9.71,-16.576 -15.078,-24.345c0.01,9.553 0.022,19.109 0.035,28.659c5.251,-1.197 9.893,-3.01 15.043,-4.314m6.395,-44.437c-0.432,-0.041 -0.851,-0.101 -0.715,-0.716c-0.479,0.007 -0.955,0.004 -1.434,0.004c-0.476,2.152 -2.478,2.779 -5.015,2.871c1.084,4.898 5.702,-0.779 7.164,-2.159m43.066,60.86c3.482,3.697 3.716,10.625 5.749,15.759c-15.428,3.93 -29.473,9.244 -45.127,12.948c-1.409,-5.28 -3.404,-9.979 -4.318,-15.759c4.614,-0.17 7.239,-2.323 11.46,-2.875c-2.768,-4.879 -6.099,-9.193 -8.614,-14.324c-8.627,3.085 -19.582,3.842 -25.785,9.364c-3.448,0.088 -2.527,-4.18 -5.024,-5.031c-3.637,3.411 3.905,6.748 6.461,8.592c0.004,3.602 0.007,7.167 0.01,10.751c4.869,-0.394 7.775,-2.739 12.897,-2.881c1.081,5.134 2.521,9.909 4.315,14.325c-12.399,4.362 -26.459,8.721 -40.828,12.947c0.441,-5.944 1.777,-12.172 -0.019,-16.484c1.355,-0.315 1.803,-1.538 3.577,-1.434c2.944,-0.334 -0.296,1.538 0.725,3.581c2.178,0.028 3.64,-0.665 4.299,-2.156c-0.183,-1.254 -1.245,-1.623 -2.871,-1.428c4.573,-20.054 -2.266,-47.727 2.792,-64.497c-2.096,-4.504 -9.565,2.014 -12.903,-2.85c1.179,-3.422 -2.912,-3.076 -4.305,-5.729c0.507,-2.626 4.119,-1.126 4.302,0.715c1.982,-0.407 1.998,-2.78 2.862,-4.305c2.253,-0.363 2.521,1.298 5.014,0.709c0.192,-2.342 -2.225,-2.068 -2.871,-3.577c-2.342,-0.193 -1.519,2.779 -3.577,2.871c-3.001,0.618 -3.392,-1.387 -5.733,-1.428c2.625,-1.793 9.055,-4.561 11.459,-2.162c3.786,-4.573 11.892,-4.838 17.909,-7.186c-1.044,2.134 -2.427,4.778 0.721,5.727c1.835,-0.788 1.4,-3.852 1.431,-6.449c5.264,-0.523 18.094,-5.947 24.351,-7.911c3.057,-0.958 3.479,3.133 3.59,5.733c0.327,2.238 -1.806,2.014 -2.865,2.865c1.005,1.775 2.464,1.267 4.299,0.713c0.11,2.285 1.635,3.148 1.44,5.733c-3.284,1.733 -7.293,2.735 -11.457,3.596c0.448,2.654 2.925,3.278 2.156,7.161c0.227,0.97 1.79,0.598 2.865,0.728c10.59,15.676 20.613,31.94 32.302,46.523c3.508,-0.552 6.462,-1.664 9.311,-2.875" style="fill:#252f28;fill-rule:nonzero;"/><path d="M398.597,22.46c1.4,-1.765 0.706,-6.013 -0.728,-7.164c-0.923,1.283 -1.601,6.928 0.728,7.164m68.05,-20.143c0.227,3.568 -0.977,5.718 -5.011,5.024c-0.281,2.67 0.57,4.208 2.874,4.293c-32.271,5.739 -65.528,10.498 -92.413,21.605c-1.973,-3.057 -3.977,-5.654 -2.88,-10.029c23.279,-7.684 58.288,-18.967 83.102,-18.012c1.179,-3.045 8.267,-3.086 8.601,0.709c1.144,-1.957 1.74,-4.463 5.727,-3.59" style="fill:#252f28;fill-rule:nonzero;"/><path d="M426.103,262.482c-1.683,3.807 -8.654,2.338 -8.588,7.889c-2.657,-0.501 -3.076,1.248 -5.733,0.728c0.094,3.025 4.078,2.603 5.736,2.137c-1.67,2.634 -3.848,4.756 -5.727,7.176c0.628,8.463 2.008,16.178 2.894,24.363c-7.407,-3.101 -14.246,-6.763 -21.508,-10.01c-7.999,2.282 -14.473,6.077 -21.485,9.339c-2.361,-1.056 1.222,-2.017 1.43,-2.868c-0.163,-1.028 -2.133,-0.249 -2.149,-1.431c0.243,-6.672 0.835,-13.001 2.127,-18.63c-3.246,-3.896 -5.689,-11.715 -4.321,-17.912c-4.403,-0.576 -4.251,3.395 -5.726,5.74c-2.361,-2.418 -5.589,-3.962 -7.177,-7.158c8.838,-0.485 15.989,-2.657 23.644,-4.324c5.1,-6.127 8.211,-14.237 12.157,-21.511c5.664,3.962 5.273,15.951 12.916,15.746c0.138,1.57 -0.58,2.301 -2.147,2.153c1.094,2.014 1.501,4.715 5.024,4.293c-0.179,3.407 -3.489,3.678 -2.855,7.885c0.4,1.031 1.116,1.747 2.149,2.163c2.474,-1.359 0.946,-6.701 3.574,-7.899c5.702,-0.577 10.972,0.104 15.765,2.131" style="fill:#252f28;fill-rule:nonzero;"/><path d="M406.415,587.829c3.199,2.386 7.041,6.486 4.312,10.76c-3.237,1.718 -5.569,-0.892 -8.601,-1.44c-8.62,5.083 -22.46,6.398 -33.674,5.055c-10.838,-1.289 -19.717,-12.248 -28.677,-13.581c11.702,-1.686 26.512,-0.271 39.412,-0.76c2.667,-0.769 2.314,1.501 3.587,2.144c5.922,-2.683 14.968,-2.229 23.641,-2.178" style="fill:#252f28;fill-rule:nonzero;"/><path d="M338.207,471.823c1.821,1.431 5.714,-3.218 4.295,-5.021c-2.389,0.567 -5.821,2.796 -4.295,5.021m0.633,-71.662c-1.204,-8.831 3.703,-0.242 5.008,-5.02c-3.476,-0.577 -3.539,-4.58 -5.739,-6.439c0.063,2.924 -1.948,3.775 -3.577,5.033c2.436,0.696 3.876,6.114 4.308,6.426m58.049,7.117c-3.303,-5.61 2.162,-14.41 0.703,-15.781c-3.839,2.616 -10.227,2.682 -14.328,5.03c3.703,1.743 9.503,5.916 5.027,11.463c2.84,-0.255 6.871,0.65 8.598,-0.712m4.359,50.141c0.013,12.179 0.028,24.379 0.044,36.542c-20.782,0.025 -41.559,0.05 -62.342,0.076c-0.917,-5.299 -3.46,-8.97 -2.883,-15.762c-1.813,-2.922 -4.353,-4.025 -8.605,-2.856c-1.421,-3.924 -1.623,-8.166 -7.176,-9.307c-0.026,-21.974 -0.051,-43.936 -0.076,-65.929c-4.299,0.007 -8.601,0.01 -12.9,0.035c-0.035,-6.735 -0.221,-13.603 0.696,-19.367c14.284,-0.12 26.541,0.179 39.41,-0.045c2.824,-0.914 1.734,2.087 3.584,2.147c12.685,-4.763 33.963,-0.952 50.16,-2.21c0.012,11.946 0.028,23.888 0.041,35.833c-6.688,0.006 -13.376,0.012 -20.064,0.019c-1.198,-4.772 1.699,-5.45 4.296,-6.452c-3.423,-1.355 -5.396,-4.16 -4.312,-10.029c-12.525,0.435 -23.919,-0.69 -32.967,0.038c0.006,3.12 0.009,6.212 0.012,9.317c-2.565,0.422 -2.181,-2.118 -2.152,-4.296c-1.643,2.089 -6.793,3.665 -6.455,-1.412c-2.456,6.287 8.487,5.348 7.898,12.159c0.738,2.402 -2.222,1.119 -3.58,1.437c0.737,3.505 -1.932,6.137 1.44,6.446c-1.195,1.629 -9.096,-1.034 -14.331,0.015c6.738,3.026 16.109,-0.463 19.355,7.146c2.389,-0.719 -0.199,-2.897 2.146,-4.303c9.062,-0.488 14.136,-0.148 22.211,-0.74c0.006,6.448 0.019,12.897 0.022,19.361c-3.102,-0.013 -6.206,-0.01 -9.314,-0.003c0.593,-0.839 0.936,-1.926 0.713,-3.587c-2.295,4.646 -10.222,3.64 -17.193,3.603c-1.661,8.141 -0.218,19.348 -0.684,28.665c9.556,1.677 22.213,0.214 32.964,0.677c-0.009,-5.733 -0.016,-11.463 -0.019,-17.196c6.685,-0.009 13.376,0 20.061,-0.022" style="fill:#252f28;fill-rule:nonzero;"/><path d="M356.497,177.289c-2.018,0.107 -2.062,-1.759 -2.153,-3.584c2.178,-0.249 1.497,2.329 2.153,3.584" style="fill:#252f28;fill-rule:nonzero;"/><path d="M274.745,122.924c1.822,-0.094 3.684,-0.135 3.58,-2.156c-1.73,0.306 -1.557,-1.311 -3.583,-0.709c0,0.952 0,1.91 0.003,2.865m11.501,32.233c1.885,0.208 3.076,-0.271 2.865,-2.152c-0.911,-0.048 -0.987,-0.924 -2.15,-0.713c-0.224,0.968 -1.015,1.374 -0.715,2.865m45.864,0.662c1.879,0.208 3.076,-0.271 2.865,-2.153c-0.914,-0.044 -0.99,-0.926 -2.156,-0.712c-0.217,0.968 -1.011,1.377 -0.709,2.865m5.008,-5.021c-1.046,-1.821 0.454,-6.196 -2.159,-6.445c-0.504,1.878 -4.084,0.687 -4.292,2.868c0.929,2.241 4.006,5.134 6.451,3.577m2.859,-8.601c20.856,17.775 6.218,45.997 -17.356,54.285c-4.445,1.563 -9.208,2.417 -14.111,2.359c-2.686,0.542 -1.57,-2.73 -3.587,-2.862c-1.431,-0.24 -2.238,0.151 -2.143,1.437c-19.903,-11.621 -29.003,-34.064 -43.056,-51.547c-3.877,1.141 -6.37,3.665 -9.307,5.746c-3.946,-2.982 -6.042,-7.814 -9.33,-11.454c9.988,-11.267 24.357,-18.167 35.795,-27.991c1.198,2.181 5.736,4.759 3.59,7.883c2.512,0.829 4.513,2.175 5.739,4.289c1.305,3.24 -6.682,3.713 -7.158,6.458c-0.267,1.598 6.698,8.891 8.611,11.46c6.568,8.812 17.31,28.385 25.123,33.645c3.032,2.043 9.496,2.783 11.466,3.587c0.46,-5.093 8.308,-6.921 8.585,-14.36c0.971,2.182 1.983,0.224 5.015,0.716c-1.022,-1.986 -3.735,-0.073 -2.872,-5.015c-6.811,-1.471 -9.953,-11.081 -14.353,-17.183c1.958,-0.526 1.45,1.418 2.868,1.431c-3.394,-5.159 2.66,-9.796 10.023,-8.611c1.825,2.241 1.979,6.146 6.458,5.727" style="fill:#252f28;fill-rule:nonzero;"/><path d="M332.081,132.892c-0.668,0.523 -1.09,1.298 -1.428,2.146c-6.215,-0.302 -10.971,1.611 -16.486,0.022c-0.476,-2.625 1.55,-2.748 1.43,-5.017c-6.93,-3.098 -12.203,-7.842 -16.496,-13.597c-3.123,0.678 -5.219,5.471 -7.879,4.312c-0.687,-4.495 2.2,-5.932 4.289,-10.039c-3.151,-1.658 -5.134,3.243 -7.16,5.024c-2.21,-2.329 -4.394,-4.683 -5.74,-7.876c5.207,-1.708 8.081,-8.819 14.319,-7.183c2.24,-0.495 0.939,-1.91 0.715,-3.583c5.774,-3.291 9.635,-8.52 16.471,-10.767c2.304,4.624 5.547,8.308 8.611,12.172c-2.846,2.645 -6.102,4.873 -9.307,7.177c5.83,9.455 13.801,16.777 18.661,27.209" style="fill:#252f28;fill-rule:nonzero;"/><path d="M324.342,256.151c0.139,3.952 -2.414,5.225 -3.574,7.885c-4.87,-2.159 0.006,-10.123 3.574,-7.885" style="fill:#252f28;fill-rule:nonzero;"/><path d="M322.772,137.199c0.81,3.433 -2.729,2.541 -3.58,4.306c-1.223,-0.927 -2.824,-1.475 -2.868,-3.581c1.699,-0.69 4.579,-2.367 6.448,-0.725" style="fill:#252f28;fill-rule:nonzero;"/><path d="M318.88,491.192c0.451,2.417 4.826,0.905 6.455,2.143c-4.538,1.677 -12.185,0.252 -17.914,0.75c-0.01,-6.464 -0.016,-12.912 -0.023,-19.361c2.626,-0.003 5.251,-0.006 7.88,-0.006c1.365,4.951 6.105,10.007 3.602,16.474" style="fill:#252f28;fill-rule:nonzero;"/><path d="M306.827,601.559c3.565,0.249 3.899,3.754 5.024,6.442c-4.179,2.799 -6.603,-3.602 -5.024,-6.442" style="fill:#252f28;fill-rule:nonzero;"/><path d="M301.09,597.982c0.719,0 1.434,-0.003 2.153,-0.003c-0.391,1.047 0.838,3.7 -0.716,3.584c-2.402,0.731 -1.122,-2.219 -1.437,-3.581" style="fill:#252f28;fill-rule:nonzero;"/><path d="M176.017,259.904c3.168,0.892 3.915,4.205 7.886,4.293c-0.47,-6.571 -10.713,-8.601 -12.9,-2.14c2.389,0 2.445,-2.332 5.014,-2.153m52.256,-48.07c0.561,-2.761 -3.438,-2.758 -2.871,0.003c1.425,1.191 0.911,-0.06 2.871,-0.003m-2.162,-7.161c1.749,0.652 4.454,2.499 5.736,1.424c-1.213,-2.461 -3.706,-2.042 -2.155,-5.729c-4.999,0.945 -6.168,-1.951 -10.033,-2.14c2.301,3.492 -1.714,3.032 -1.427,6.451c3.952,-0.857 2.496,3.713 5.733,3.577c2.256,0.353 0.536,-3.284 2.146,-3.583m11.558,80.241c6.744,-1.085 1.721,-9.872 -3.59,-6.446c0.542,2.793 3.274,3.414 3.59,6.446m1.371,-57.328c0.472,-2.868 2.682,-4.006 2.855,-7.154c-0.838,-0.612 -1.926,-0.955 -3.583,-0.728c0.05,2.912 -2.267,3.463 -2.147,6.451c1.961,-0.523 1.456,1.419 2.875,1.431m11.526,53.728c-1.479,0.438 -4.977,-1.144 -4.296,1.441c2.058,0.148 3.637,-0.183 4.296,-1.441m37.944,-28.69c0.658,2.669 2.931,3.744 3.593,6.429c-6.209,16.471 -29.182,16.216 -33.642,34.436c-2.03,0.12 -2.985,1.315 -5.015,1.435c-1.323,2.975 -0.438,8.153 -5.723,7.173c-2.484,-5.219 -1.119,-12.982 1.412,-17.196c-8.456,7.668 -26.897,18.003 -46.564,12.235c0.52,-1.629 2.146,-2.153 3.58,-2.874c-2.84,-4.561 -8.377,-2.452 -13.622,-4.999c-1.535,1.081 0.511,1.746 -0.709,3.583c-1.869,-0.28 -2.168,-2.13 -4.305,-2.143c3.697,-7.17 11.712,-7.016 18.623,-7.901c-1.26,-5.213 -6.227,-5.175 -10.753,-4.293c-0.36,-2.742 -2.72,-3.489 -4.306,-5.005c-1.714,1.147 -3.369,2.361 -6.445,2.153c-0.778,-3.401 2.326,-2.925 5.014,-2.871c1.249,-2.541 -2.411,-3.685 -0.724,-4.299c2.344,-0.196 1.528,2.776 3.586,2.861c15.116,-3.479 38.647,11.826 48.005,-5.071c1.686,0.016 2.102,-1.238 4.299,-0.718c2.928,-11.01 3.539,-27.071 -4.337,-32.962c0.463,-0.728 1.642,-0.746 1.431,-2.149c-8.333,-2.005 -19.201,-14.788 -34.411,-12.141c-1.251,0.18 -1.623,1.239 -1.428,2.865c-0.882,-0.309 -1.481,-0.907 -1.437,-2.143c-9.014,1.5 -12.232,8.79 -17.899,13.632c-0.318,-3.748 -0.977,-7.149 -4.308,-7.877c-2.131,1.929 -4.296,3.83 -4.29,7.889c1.286,1.463 3.281,-2.424 6.445,-1.44c0.883,0.403 0.53,5.578 2.156,2.862c-3.18,14.413 4.331,28.63 15.085,33.66c-2.522,1.097 -6.03,-1.843 -10.029,0.013c-1.346,-1.819 -4.681,-4.472 -7.889,-2.14c1.424,4.4 -0.334,5.226 -2.856,7.167c-0.135,1.585 0.583,2.285 2.15,2.15c-1.504,2.077 -5.383,1.783 -4.29,6.451c2.197,2.241 4.315,0.117 6.449,2.143c0.003,1.434 0.006,2.868 0.009,4.302c-15.878,-5.326 -27.458,-42.592 -13.682,-58.027c1.803,-2.036 5.44,-6.757 10.026,-5.027c0,-0.718 -0.003,-1.434 -0.003,-2.152c-1.27,-2.418 -3.672,0.022 -7.167,-0.706c19.263,-46.23 96.661,-30.449 93.182,23.54c-0.47,7.372 -3.313,13.184 -5.708,20.068c6.622,-3.647 16.739,-10.02 20.042,-19.368c3.183,3.07 4.05,3.873 7.882,3.571c0.379,1.822 1.226,2.777 -1.427,2.884" style="fill:#252f28;fill-rule:nonzero;"/><path d="M196.277,431.141c-0.911,-0.987 -3.388,-0.98 -4.299,0.006c-0.028,0.987 0.347,1.564 0.719,2.15c2.256,0.34 2.924,-0.902 3.58,-2.156m-0.649,58.043c2.924,0.296 4.522,-0.722 4.292,-3.587c-1.727,0.303 -1.55,-1.311 -3.58,-0.712c-0.82,0.851 -0.804,2.537 -0.712,4.299m9.934,-84.568c0.385,-3.732 -1.812,-4.876 -4.305,-5.724c0.75,2.578 2.72,3.968 4.305,5.724m10.754,3.574c-7.602,-0.202 -11.394,-0.583 -16.478,3.599c5.207,-2.483 15.605,3.804 16.478,-3.599m-5.699,28.668c3.13,-2.6 6.786,-4.68 7.87,-9.326c-5.938,2.307 -14.901,-1.878 -15.762,3.603c-0.179,1.119 5.412,4.964 7.892,5.723m8.655,51.582c-0.091,-2.537 0.52,-5.777 -2.156,-5.73c1.39,1.239 -0.605,5.869 2.156,5.73m4.246,-48.729c1.027,-1.122 1.503,-2.796 2.143,-4.287c-4.208,1.169 -7.703,-1.412 -10.026,1.428c2.046,1.535 3.612,3.549 7.883,2.859m-6.465,-12.894c34.793,8.62 36.119,-34.764 -0.031,-26.513c0.012,8.838 0.022,17.678 0.031,26.513m40.816,-25.126c1.928,1.714 10.186,4.211 11.466,-0.013c-2.329,-1.043 -9.181,-1.289 -11.466,0.013m28.031,73.058l0.022,19.348c-10.747,0.013 -21.498,0.022 -32.245,0.035c-8.305,-16.304 -16.37,-32.854 -24.42,-49.413c-4.063,0.003 -8.122,0.009 -12.182,0.015c0.01,10.033 0.022,20.061 0.032,30.093c4.542,-0.003 9.08,-0.009 13.615,0c0.01,6.433 0.016,12.901 0.026,19.333c-18.63,0.022 -37.26,0.044 -55.894,0.063c-0.006,-6.448 -0.012,-12.897 -0.025,-19.345c4.542,0.009 9.08,-0.01 13.616,-0.019c1.995,-4.926 -0.867,-14.703 2.849,-17.915c-4.545,-16.792 -0.451,-38.662 -1.5,-55.874c-5.377,-1.387 -4.539,-0.593 -7.171,-3.59c-3.299,-0.148 1.154,3.354 -2.861,2.868c-2.361,-0.028 -5.075,0.303 -5.021,-2.146c-0.287,-2.909 4.463,-0.794 6.448,-1.437c-0.945,-4.627 -4.519,-8.088 -0.009,-10.751c-0.318,-1.358 -1.541,-1.806 -1.44,-3.583c-0.057,-0.101 -0.133,-0.19 -0.196,-0.265c18.11,-1.053 45.843,-3.218 65.406,-1.242c15.809,1.595 30.947,14.968 26.55,32.217c3.744,13.294 -7.006,23.194 -16.452,27.982c5.522,11.428 11.523,22.39 17.24,33.641c4.535,-0.003 9.074,-0.009 13.612,-0.015" style="fill:#252f28;fill-rule:nonzero;"/><path d="M285.722,319.969c-2.152,0.003 -4.302,0.003 -6.448,0.007c-0.123,-2.267 1.907,-2.393 1.424,-5.018c3.092,0.249 4.766,1.923 5.024,5.011" style="fill:#252f28;fill-rule:nonzero;"/><path d="M272.797,297.053c3.12,1.027 -0.054,4.182 -1.425,5.017c-1.541,-0.892 1.771,-2.944 1.425,-5.017" style="fill:#252f28;fill-rule:nonzero;"/><path d="M261.907,175.965c0.986,2.166 -0.337,2.569 0.009,5.733c-1.657,0.227 -2.748,-0.113 -3.586,-0.712c-0.703,-2.852 2.133,-2.165 1.427,-5.014c0.719,0.006 1.438,-0.007 2.15,-0.007" style="fill:#252f28;fill-rule:nonzero;"/><path d="M234.555,689.064c1.182,2.669 -1.292,5.15 -5.011,5.023c-0.422,-3.763 1.875,-4.812 5.011,-5.023" style="fill:#252f28;fill-rule:nonzero;"/><path d="M214.701,251.977c-1.235,2.105 -2.612,-1.623 -2.152,-3.584c2.253,-0.343 0.542,3.284 2.152,3.584" style="fill:#252f28;fill-rule:nonzero;"/><path d="M177.411,382.287c0.688,-0.599 1.431,-0.971 2.134,-0.123c-0.731,0.044 -1.446,0.092 -2.134,0.123" style="fill:#252f28;fill-rule:nonzero;"/><path d="M174.726,382.439c0.867,-0.047 1.762,-0.091 2.685,-0.151c-1.179,1.028 -2.222,2.733 -2.685,0.151" style="fill:#252f28;fill-rule:nonzero;"/><path d="M167.019,535.795c2.181,0.448 3.659,1.592 3.587,4.293c-1.879,-0.744 -3.196,-2.055 -3.587,-4.293" style="fill:#252f28;fill-rule:nonzero;"/><path d="M165.686,621.084c1.878,-0.227 3.073,0.249 2.868,2.13c-2.017,0.75 -3.045,0.826 -2.868,-2.13" style="fill:#252f28;fill-rule:nonzero;"/><path d="M165.095,110.868c1.463,0.208 1.913,1.434 2.868,2.15c-1.103,1.134 -3.177,3.195 -5.011,1.437c-0.347,-2.257 1.92,-1.901 2.143,-3.587" style="fill:#252f28;fill-rule:nonzero;"/><path d="M158.128,282.856c0.256,1.863 -5.626,2.632 -4.299,-0.712c1.762,-0.092 3.445,-0.111 4.299,0.712" style="fill:#252f28;fill-rule:nonzero;"/><path d="M142.742,610.346c3.086,-3.451 9.802,-6.801 15.04,-5.748c-3.593,2.943 -9.531,7.085 -15.04,5.748" style="fill:#252f28;fill-rule:nonzero;"/><path d="M78.716,393.3c1.134,-1.078 1.04,-4.091 -1.438,-3.581c-1.131,1.075 -1.04,4.091 1.438,3.581m5.055,33.673c0.905,-4.138 -4.283,-11.059 -9.326,-9.307c3.168,3.041 5.903,6.521 9.326,9.307m0.665,-42.281c0.378,2.402 4.101,3.981 5.736,2.862c-0.523,-2.345 -2.94,-2.789 -5.736,-2.862m6.502,42.987c0.161,-1.358 -0.81,-1.579 -0.722,-2.865c-0.955,0.003 -1.91,0.019 -2.865,0.003c0.029,0.987 -0.343,1.567 -0.712,2.15c0.848,0.822 2.537,0.803 4.299,0.712m23.657,9.291c1.731,1.132 3.064,2.667 6.452,2.14c-0.599,-1.834 -5.692,-2.861 -6.452,-2.14m20.042,-16.505c-3.164,-1.103 -9.178,2.458 -12.897,-0.7c1.428,-16.739 -9.758,-20.833 -26.534,-19.317c-0.889,5.074 2.137,14.057 -2.131,15.765c4.466,2.216 1.119,12.27 2.172,17.911c15.525,2.761 20.338,-7.056 32.954,-5.055c1.428,-3.584 4.098,-5.932 6.436,-8.604m2.172,18.642c-3.521,-1.906 -5.219,1.74 -9.314,-0.003c-0.551,2.014 -6.47,5.38 -1.424,6.449c1.39,-1.075 -1.258,-2.998 1.428,-3.584c2.672,-0.763 2.048,1.771 4.302,1.428c0.069,-3.032 2.937,-3.272 5.008,-4.29m11.444,-20.092c-0.716,0.003 -1.431,0 -2.146,0.003c0.195,3.36 -4.656,4.498 -2.859,7.17c3.224,-0.841 4.579,-3.545 5.005,-7.173m2.137,-10.035c5.087,35.407 -19.172,47.645 -55.124,44.49c0.009,7.183 0.018,14.334 0.025,21.501c5.017,-0.006 10.032,-0.016 15.046,-0.019c0.013,6.449 0.019,12.897 0.022,19.362c-18.627,0.006 -37.257,0.028 -55.887,0.05c-0.009,-6.452 -0.015,-12.9 -0.022,-19.349c4.057,-0.003 8.116,-0.009 12.179,-0.012c1.604,-20.559 0.015,-49.625 1.358,-65.926c2.641,-0.019 4.942,0.322 5.021,2.859c1.068,-1.913 -0.158,-3.959 2.14,-5.733c2.836,-1.109 4.375,2.71 5.733,0.709c-2.613,-2.342 -9.351,-3.854 -11.466,-0.706c-2.225,-0.157 -1.214,-3.565 -1.437,-5.73c-4.539,0.007 -9.077,0.013 -13.616,0.032c-0.009,-6.465 -0.016,-12.913 -0.022,-19.362c10.417,0.136 18.227,-0.633 25.082,2.118c0.816,-4.447 14.283,-1.134 20.779,-2.171c0.019,2.881 -2.31,3.42 -5.014,3.59c2.392,4.296 6.997,6.379 12.191,7.867c-0.634,-4.151 -4.709,-4.848 -3.596,-10.745c6.669,-3.397 9.726,2.572 13.618,4.283c2.181,-0.882 -0.778,-2.461 0,-4.299c2.686,-0.063 4.955,0.29 6.449,1.425c-7.022,7.545 2.001,12.881 4.321,19.342c2.329,-0.299 1.847,-3.404 2.862,-5.005c1.793,0.583 3.835,0.924 6.448,0.694c1.166,1.166 -0.64,3.003 0.007,5.736c6.347,1.557 3.533,-6.023 10.028,-4.312c0.571,2.79 0.751,3.713 -0.709,5.733c0.747,1.642 2.793,1.98 3.584,3.578" style="fill:#252f28;fill-rule:nonzero;"/><path d="M143.442,596.014c1.882,-0.211 2.358,0.984 2.153,2.865c-1.491,0.3 -1.897,-0.492 -2.868,-0.712c0.375,-0.583 0.747,-1.169 0.715,-2.153" style="fill:#252f28;fill-rule:nonzero;"/><path d="M143.927,394.657c-2.149,1.885 -5.484,-1.172 -5.024,-4.293c2.405,0.697 3.574,2.635 5.024,4.293" style="fill:#252f28;fill-rule:nonzero;"/><path d="M137.253,201.189c2.297,0.028 0.318,2.045 1.437,4.299c-3.656,0.825 -1.677,-2.881 -1.437,-4.299" style="fill:#252f28;fill-rule:nonzero;"/><path d="M131.225,565.216c1.686,-1.687 3.526,0.116 5.736,-0.007c-0.092,2.777 -2.106,3.631 -3.581,5.024c-1.67,-0.718 -2.319,-2.465 -2.155,-5.017" style="fill:#252f28;fill-rule:nonzero;"/><path d="M135.601,631.867c0.139,2.03 0.095,3.896 -2.146,3.571c-0.927,-0.939 -0.927,-2.641 -0.003,-3.584c0.718,0 1.434,-0.003 2.149,0.013" style="fill:#252f28;fill-rule:nonzero;"/><path d="M134.826,580.26c-1.734,-0.296 -1.554,1.314 -3.584,0.722c-0.747,-1.478 -0.246,-5.913 0.706,-9.317c2.345,1.4 -0.17,6.569 2.878,8.595" style="fill:#252f28;fill-rule:nonzero;"/><path d="M121.9,558.061c2.761,-0.183 3.038,4.488 2.156,5.73c-4.028,0.914 -2.884,-3.805 -2.156,-5.73" style="fill:#252f28;fill-rule:nonzero;"/><path d="M106.915,612.553c2.197,0.117 1.513,3.833 -0.712,3.568c-0.227,-1.658 0.117,-2.745 0.712,-3.568" style="fill:#252f28;fill-rule:nonzero;"/><path d="M105.418,556.648c2.663,5.235 -4.321,6.515 -4.287,11.472c-1.654,0.224 -2.745,-0.116 -3.583,-0.715c0.832,-4.646 4.92,-6.067 5.72,-10.757c0.716,0.003 1.431,0 2.15,0" style="fill:#252f28;fill-rule:nonzero;"/><path d="M95.496,652.68c3.521,-2.033 5.711,-4.022 8.601,-0.009c-2.133,1.925 -4.79,3.334 -8.594,3.589c-0.004,-1.194 -0.004,-2.386 -0.007,-3.58" style="fill:#252f28;fill-rule:nonzero;"/><path d="M103.288,573.863c-1.343,1.746 -2.235,3.955 -3.577,5.72c-3.391,-2.773 -5.119,-0.069 -8.595,0.728c-0.889,-4.223 2.799,-3.883 4.289,-5.739c3.231,3.772 4.079,0.113 7.883,-0.709" style="fill:#252f28;fill-rule:nonzero;"/><path d="M96.801,541.608c-1.396,5.437 -0.359,8.989 -1.418,14.334c-4.119,-0.848 -2.408,-5.175 -0.722,-7.164c-0.195,-1.481 -1.913,-1.434 -2.871,-2.146c1.686,-1.182 3.792,-1.945 2.862,-5.736c1.163,-0.212 1.239,0.671 2.149,0.712" style="fill:#252f28;fill-rule:nonzero;"/><path d="M768.888,574.161c0.87,-0.126 2.115,0.123 2.244,-0.75c-0.876,0.126 -2.118,-0.119 -2.244,0.75m44.08,-11.951c0.029,-2.291 -3.861,0.104 -5.232,-2.244c-0.948,1.043 -3.656,0.328 -3.734,2.241c1.386,0.838 5.559,-0.53 8.966,0.003m5.229,76.944c1.135,-0.12 3.218,-4.668 1.494,-2.988c-0.221,0.889 -3.955,1.869 -1.494,2.988m5.976,-32.123c-0.003,-3.483 0,-6.972 0,-10.457c-4.964,-10.789 -17.99,-22.365 -32.123,-21.666c-11.551,0.577 -16.064,10.159 -21.668,18.675c9.228,5.213 17.867,11.021 26.894,16.436c-0.993,2.789 3.205,6.042 5.232,8.22c0.977,-2.32 -2.213,-4.142 0,-5.232c4.639,3.082 8.932,6.505 14.192,8.967c2.027,-5.45 5.232,-9.695 7.473,-14.943m6.723,-17.93c0.573,-0.17 1.478,-0.016 1.493,-0.744c-0.573,0.17 -1.478,0.016 -1.493,0.744m4.478,-12.699c-2.515,-2.269 -2.266,2.752 0,0m-44.071,-20.918c36.948,-6.307 65.494,35.426 41.086,65.746c0.139,-2.011 -3.205,-4.655 -2.237,-9.714c-3.426,1.806 -2.711,7.747 -5.232,10.458c-6.244,2.102 -13.773,-1.683 -16.437,3.734c0.542,1.696 0.669,3.814 1.494,5.226c2.648,-0.586 2.115,-4.352 4.482,-5.226c4.031,0.451 10.382,-1.418 11.211,2.241c0.886,4.126 -2.588,3.893 -4.485,5.229c0.312,1.434 2.893,0.593 2.238,2.988c-4.744,6.464 -9.04,13.37 -12.702,20.921c-4.479,-1.743 -7.763,-4.686 -11.951,-6.725c1.074,-4.403 4.406,-6.556 5.979,-10.461c-14.335,-10.067 -30.245,-18.564 -44.825,-28.385c-3.319,2.411 -4.809,6.644 -6.722,10.461c-4.331,-1.904 -7.224,-5.232 -11.955,-6.729c13.322,-17.37 23.966,-55.314 50.056,-59.764" style="fill:#252f28;fill-rule:nonzero;"/><path d="M783.908,683.888c0.265,-0.447 0.485,-0.92 0.668,-1.399c-0.123,0.526 -0.359,0.996 -0.668,1.399" style="fill:#252f28;fill-rule:nonzero;"/><path d="M712.856,674.268c0.158,-0.838 0.826,-1.166 1.494,-1.494c-0.091,-1.894 -1.09,-2.893 -2.988,-2.988c0.016,1.976 -0.419,4.409 1.494,4.482m13.449,28.394c0,-1.002 0,-1.998 0,-2.994c-1.541,0.451 -4.901,-0.917 -5.229,0.747c1.774,0.722 3.3,3.955 5.229,2.247m8.216,-0.753c-0.17,-1.418 0.842,-1.648 0.75,-2.988c-1.418,-0.17 -1.648,0.842 -2.991,0.747c0,0.498 -0.015,0.999 0.004,1.497c0.948,0.047 1.024,0.961 2.237,0.744m5.979,-56.773c2.969,-0.302 3.984,-6.448 2.238,-8.97c-1.428,2.304 -0.088,7.382 -2.238,8.97m32.126,34.364c0.839,-0.076 1.166,1.084 1.494,0c-0.019,-0.744 -1.311,-0.939 -1.494,0m11.205,2.985c-3.981,-0.495 -6.537,0.441 -7.47,2.994c1.588,1.147 5.79,0.759 7.548,-1.592c-2.385,4.359 -7.242,7.098 -11.286,10.555c-12.761,10.896 -26.613,23.777 -39.592,35.111c-4.593,-2.134 -7.101,-6.351 -9.714,-10.458c2.162,-2.073 4.917,-3.548 6.726,-5.975c-10.543,-14.369 -23.648,-26.182 -34.37,-40.346c-2.928,1.806 -4.715,4.747 -8.217,5.979c-2.49,-3.738 -6.243,-6.212 -8.216,-10.461c18.365,-15.251 35.422,-31.81 54.534,-46.321c4.64,7.318 11.627,12.282 15.69,20.171c-4.11,2.37 -6.928,6.026 -10.458,8.97c-4.204,-1.28 -5.433,-5.528 -8.219,-8.22c-7.145,4.561 -12.872,10.54 -19.425,15.686c3.798,4.92 8.236,9.2 11.955,14.199c5.386,-3.829 9.789,-8.642 14.939,-12.701c4.564,1.916 6.023,6.924 9.711,9.71c-4.633,4.829 -10.158,8.765 -14.94,13.446c3.549,5.919 9.169,9.761 12.702,15.689c7.548,-4.157 12.837,-10.568 19.424,-15.686c-1.585,-3.893 -5.295,-5.667 -7.472,-8.967c3.378,-4.091 7.267,-7.671 11.957,-10.458c4.558,6.398 11,10.912 14.193,18.675" style="fill:#252f28;fill-rule:nonzero;"/><path d="M626.941,698.176c0.577,-0.174 1.479,-0.016 1.498,-0.747c-0.577,0.173 -1.479,0.015 -1.498,0.747m41.837,25.403c0.841,-0.079 1.166,1.084 1.497,-0.003c-0.019,-0.744 -1.311,-0.933 -1.497,0.003m2.988,-50.056c3.829,2.392 3.754,8.702 6.726,11.951c-2.569,1.919 -5.557,3.407 -8.964,4.482c-0.47,5.449 2.272,9.635 -2.244,11.207c0.34,1.898 3.221,1.261 3.735,2.992c1.015,18.658 4.018,35.328 4.485,54.534c-2.462,0.672 -6.351,-0.545 -9.711,0.747c-0.22,-1.216 0.7,-1.292 0.747,-2.241c-4.343,0.889 -8.406,2.059 -10.461,5.229c-16.562,-13.82 -29.787,-30.972 -45.574,-45.574c-2.925,1.078 -4.977,2.991 -8.964,2.988c-1.402,-4.076 -3.066,-7.889 -5.231,-11.202c12.127,-6.303 24.892,-11.97 38.104,-17.183c1.806,4.17 3.798,8.154 5.229,12.698c-3.596,0.64 -6.051,2.415 -8.964,3.738c9.122,10.552 18.851,20.496 28.385,30.629c0.486,-14.492 -6.489,-32.996 -0.744,-43.33c-3.315,2.88 -6.505,2.691 -12.704,5.229c-1.85,-4.126 -4.384,-7.562 -5.223,-12.699c11.019,-4.173 21.445,-8.932 31.373,-14.195" style="fill:#252f28;fill-rule:nonzero;"/><path d="M673.263,760.184c0.592,2.881 -3.578,2.878 -2.991,-0.003c0.999,0.003 1.995,0.003 2.991,0.003" style="fill:#252f28;fill-rule:nonzero;"/><path d="M668.032,762.424l0,1.494c-0.498,0 -0.996,0 -1.494,0c0,-0.498 0.003,-0.993 0.003,-1.491c0.498,0 0.993,-0.003 1.491,-0.003" style="fill:#252f28;fill-rule:nonzero;"/><path d="M523.845,749.724c-2.38,0.64 -2.304,-1.182 -3.732,-1.494c0.4,1.088 -0.873,3.861 0.744,3.738c-0.325,-2.07 2.789,-0.703 2.988,-2.244m6.722,-2.241c0.048,-0.45 0.114,-0.888 0.747,-0.747c-0.072,-0.917 -0.214,-1.771 -1.494,-1.494c0.126,0.883 -0.119,2.118 0.747,2.241m45.575,-24.653c-1.62,1.368 -6.118,-0.142 -7.47,1.494c2.411,1.712 6.521,1.945 7.47,-1.494m3.735,14.193c-3.909,0.422 -3.048,-3.918 -5.976,-4.482c-0.123,3.861 0.668,6.801 4.482,6.726c-0.215,-1.463 1.011,-1.479 1.494,-2.244m-0.747,19.424c1.09,-0.404 3.86,0.873 3.738,-0.744c-0.454,-1.292 -3.552,0.06 -3.738,-1.5c1.727,-23.468 -29.618,-34.83 -41.837,-16.433c-0.952,3.303 -2.288,6.177 -4.482,8.219c3.968,1.523 -1.311,9.928 0.747,11.955c-0.324,16.405 23.333,32.901 38.849,17.927c2.272,2.197 7.375,-0.763 5.229,-2.985c-2.147,-2.228 -1.293,1.866 -3.735,1.491c3.158,-4.557 5.216,-10.208 5.229,-17.93m-64.842,-14.753c11.381,-42.414 92.297,-36.996 87.254,17.744c-3.206,34.754 -53.025,49.508 -78.444,26.144c-6.6,-7.596 -11.394,-16.998 -11.952,-30.629c2.194,-1.885 -0.328,-5.289 1.497,-9.711c-0.548,-4.683 4.665,1.028 3.735,-3.734c-0.019,-0.732 -0.923,-0.577 -1.497,-0.747c-0.095,0.422 -0.407,0.602 -0.593,0.933" style="fill:#252f28;fill-rule:nonzero;"/><path d="M514.289,741.693c-0.063,0.189 -0.11,0.375 -0.157,0.561c0,-0.234 0.066,-0.42 0.157,-0.561" style="fill:#252f28;fill-rule:nonzero;"/><path d="M425.23,734.782c1.088,2.474 1.851,-2.909 0,0m0.747,28.388c4.454,-1.428 5.415,4.514 8.964,1.494c-1.04,-1.727 -9.307,-3.268 -8.964,-1.494m11.208,-4.482c0.23,-2.335 -3.454,-3.983 -3.738,-1.493c1.434,0.312 1.355,2.13 3.738,1.493m0.747,-20.918c0.873,2.96 0.87,-2.956 0,0m5.229,45.571c0.548,-2.036 -1.478,-1.509 -1.494,-2.987c-4.075,0.406 -5.276,3.687 -10.458,2.987c1.116,5.945 7.498,-0.324 11.952,0m-0.747,-39.595c27.534,10.054 28.277,-21.728 3.735,-18.674c-1.976,5.493 -2.834,12.106 -3.735,18.674m13.448,3.735c-4.781,-0.854 -1.635,2.291 0,0m4.482,22.415c0.577,-0.173 1.478,-0.016 1.494,-0.744c-0.577,0.167 -1.478,0.01 -1.494,0.744m1.491,5.229c1.295,0.047 1.919,-0.577 2.244,-1.494c-1.166,0.076 -2.584,-0.095 -2.244,1.494m0.75,-11.952c-1.245,-0.003 -2.493,-0.003 -3.735,-0.003c-0.003,0.501 0,0.996 0,1.494c1.201,2.336 2.944,-0.945 3.735,-1.491m-0.003,6.723c0.892,-0.11 2.121,0.123 2.244,-0.75c-0.87,0.126 -2.115,-0.123 -2.244,0.75m2.244,-48.562c-2.367,-0.356 -3.048,0.936 -3.735,2.241c2.351,0.359 3.051,-0.933 3.735,-2.241m0.747,29.888c3.861,1.8 3.486,-4.331 0,0m-1.491,5.229c1.491,-0.003 2.985,-0.003 4.482,0c-0.079,-1.92 -1.371,-2.619 -2.244,-3.738c-0.233,1.758 -2.597,1.386 -2.238,3.738m8.217,-3.735c1.85,2.903 1.087,-2.474 0,0m0,-18.677c1.743,0.23 3.218,1.585 3.732,-0.751c-0.949,-1.011 -3.653,-1.15 -3.732,0.751m5.225,51.543c4.173,-0.435 5.762,1.715 9.717,1.497c-0.485,4.747 -1.528,8.936 -2.244,13.446c-8.046,-1.913 -17.65,-2.269 -24.653,-5.226c-1.324,-9.203 -7.967,-23.814 -10.457,-36.611c-2.09,-1.648 -5.9,-1.569 -8.967,-2.24c-3.086,5.386 -3.593,13.338 -4.485,20.918c2.307,1.683 6.54,1.434 9.717,2.241c-1.201,4.031 -2.106,8.358 -2.244,13.445c-13.928,-2.499 -27.515,-5.352 -41.834,-7.466c0.231,-4.996 1.491,-8.967 2.238,-13.452c4.328,-0.344 6.726,1.248 10.461,1.497c4.419,-16.251 6.319,-35.019 10.457,-51.55c-2.398,-2.336 -6.987,-2.474 -11.207,-2.988c1.201,-4.031 2.089,-8.374 2.244,-13.446c1.557,-0.315 1.976,0.514 2.988,0.744c3.785,0.47 -2.178,1.668 -0.747,4.485c2.846,-0.64 4.746,-2.225 7.469,-2.988c20.222,3.94 44.673,3.644 56.783,15.69c8.263,13.805 1.348,33.276 -13.452,35.11c-0.278,1.747 1.743,5.822 -2.241,6.723c0.637,2.194 1.881,-0.961 3.738,0c2.238,6.726 4.217,13.717 6.719,20.171" style="fill:#252f28;fill-rule:nonzero;"/><path d="M334.087,721.334c-4.782,-0.854 -1.636,2.291 0,0m4.481,1.494c0,-0.498 0,-0.996 0.004,-1.491c-0.751,0 -1.494,0 -2.248,-0.003l0.004,1.497c0.75,0 1.493,0 2.24,-0.003m4.482,-10.458c1.088,1.151 3.833,0.656 5.979,0.747c-0.542,-3.221 -4.608,-3.454 -5.979,-0.747m6.729,-32.87c-0.129,-0.873 0.12,-2.117 -0.75,-2.244c-0.233,1.759 -2.323,1.668 -2.988,2.988c1.727,0.234 2.865,-0.123 3.738,-0.744m2.241,17.931c1.85,2.909 1.084,-2.477 0,0m0.744,-5.232c0.577,-0.173 1.478,-0.016 1.494,-0.744c-0.574,0.17 -1.475,0.013 -1.494,0.744m22.415,44.08c0.76,-2.556 -5.619,-1.774 -5.982,-0.75c2.153,0.092 4.889,-0.406 5.982,0.75m5.973,-14.942c-3.146,-0.095 -4.016,-2.465 -6.72,-2.988c8.976,-9.556 -0.58,-21.407 -10.46,-23.162c-3.625,7.085 -7.549,13.871 -10.461,21.668c4.466,5.992 17.464,3.451 23.909,7.47c0.791,-1.447 2.534,-1.948 3.732,-2.988m-2.988,13.445c0.577,-0.173 1.478,-0.015 1.497,-0.747c-0.577,0.174 -1.478,0.016 -1.497,0.747m5.229,-42.583c-3.842,1.806 2.568,1.932 0,0m4.485,11.955c1.494,0 2.988,0 4.481,0c-0.636,-2.383 1.182,-2.304 1.494,-3.738c-2.783,-2.052 -6.691,-0.06 -5.975,3.738m11.951,8.963c0.11,19.752 -20.824,33.135 -41.833,21.669c0,-0.996 -0.003,-1.996 -0.003,-2.992c-3.281,1.151 -6.13,-1.276 -10.458,-2.987c-3.47,4.686 -5.991,8.298 -7.473,13.448c2.355,2.632 6.121,3.845 9.717,5.229c-1.481,4.746 -4.081,8.374 -5.982,12.702c-13.136,-5.793 -24.665,-13.187 -38.101,-18.681c0.765,-5.462 4.188,-8.261 5.978,-12.698c2.957,2.193 5.122,2.241 8.967,4.485c8.497,-14.139 15.318,-31.846 24.653,-47.069c-3.845,-2.912 -4.513,-4.406 -6.722,-8.967c2.505,-0.98 5.944,-1.027 7.469,-2.987c-0.797,-3.004 -3.032,0.094 -5.979,-0.747c0.593,-1.4 1.245,-2.739 1.497,-4.479c16.074,11.359 58.116,16.897 58.27,44.074" style="fill:#252f28;fill-rule:nonzero;"/><path d="M338.57,680.993c-0.328,1.103 -0.949,-0.293 -2.238,0c-0.003,-0.501 -0.003,-0.999 -0.006,-1.494c0.639,0.142 0.706,-0.296 0.75,-0.75c1.071,0.17 0.268,2.228 1.494,2.244" style="fill:#252f28;fill-rule:nonzero;"/><path d="M237.713,666.798c-2.039,3.798 2.616,2.786 0,0m28.388,-7.473c2.335,0.363 2.105,-1.878 2.988,-2.988c-1.898,0.095 -2.893,1.091 -2.988,2.988m18.68,-17.18c-0.186,-5.292 -5.449,-5.513 -8.966,-7.473c1.134,4.343 6.508,4.454 8.966,7.473m3.735,35.114c0.87,2.956 0.87,-2.957 0,0m3.732,1.494c0.876,-0.126 2.121,0.123 2.241,-0.747c-0.87,0.107 -2.112,-0.126 -2.241,0.747m-1.491,-42.584c1.418,-0.328 4.498,1.012 3.735,-1.497c-1.85,-0.104 -3.628,-0.142 -3.735,1.497m-13.448,26.144c6.489,12.78 29.261,9.978 26.897,-5.976c-0.795,-5.32 -7.007,-8.342 -11.208,-11.951c-4.469,6.738 -11.409,10.999 -15.689,17.927m37.354,11.208c5.292,-3.811 -0.015,-11.035 -5.228,-11.205c1.307,4.17 3.482,7.486 5.228,11.205m2.241,2.991c-0.838,-0.158 -1.166,-0.826 -1.494,-1.494c-2.786,-0.794 -1.182,2.802 -3.735,2.241c-1.979,-3.751 -8.358,-3.114 -7.469,-9.714c-3.161,0.079 -4.473,2.008 -5.232,4.482c1.431,2.414 1.806,4.686 0,6.726c1.648,1.276 5.884,0.356 6.723,-1.498c-1.866,0.095 -2.333,1.438 -2.985,-0.746c5.723,-1.198 11.623,4.948 14.192,0.003m1.494,-18.678c0.75,-2.49 -1.043,-2.442 -2.988,-2.244c-0.217,1.964 1.028,2.465 2.988,2.244m-38.848,-45.574c10.006,14.571 45.171,29.526 44.077,54.541c-0.293,6.735 -6.493,18.457 -11.205,15.686c-2.272,0.918 1.091,2.85 -0.75,3.732c-10.142,7.508 -27.871,2.619 -33.616,-5.226c4.109,-5.963 -8.655,-4.343 -10.461,-8.966c-2.909,3.829 -9.537,7.879 -9.711,11.954c-1.572,2.708 -1.289,-2.6 -3.731,-1.494c-1.422,0.079 -0.517,2.471 -2.241,2.241c0.573,2.162 2.72,2.758 3.731,4.482c3.285,0.794 2.462,-2.518 5.229,-2.241c1.031,1.712 3.083,2.396 4.485,3.735c-2.931,3.549 -6.058,6.909 -8.967,10.461c-7.955,-6.739 -16.033,-13.354 -22.412,-21.669c5.51,-0.157 13.108,1.434 19.425,1.497c-1.4,-6.58 -14.691,-1.446 -20.919,-2.991c-3.798,-0.929 -5.868,-3.265 -7.473,-6.722c2.399,-3.332 5.853,-5.601 8.22,-8.964c3.549,0.933 4.592,4.372 7.47,5.976c9.607,-4.715 13.622,-18.583 23.906,-20.168c-0.123,-0.873 -1.368,-0.624 -2.238,-0.75c4.854,-7.735 11.485,-9.506 15.69,-17.184c-2.292,-2.442 -3.959,-5.509 -7.473,-6.722c2.071,-4.656 6.691,-6.755 8.964,-11.208" style="fill:#252f28;fill-rule:nonzero;"/><path d="M274.322,676.512c1.431,0.309 3.221,0.265 2.988,2.238c-1.277,1.358 -2.944,-0.233 -2.988,-2.238" style="fill:#252f28;fill-rule:nonzero;"/><path d="M184.672,601.802c0.574,-0.17 1.478,-0.015 1.494,-0.743c-0.577,0.167 -1.481,0.012 -1.494,0.743m3.735,11.955c1.122,0.87 3.142,2.613 3.738,0c-1.497,-0.501 -3.193,-2.581 -3.738,0m14.942,-41.089c-0.655,1.538 1.929,3.359 2.241,1.49c-1.182,-0.06 -0.592,-1.897 -2.241,-1.49m-2.24,57.522c0.715,-5.008 8.654,-2.798 8.963,-8.22c-3.672,1.39 -7.236,4.035 -11.951,2.245c-0.905,2.222 -0.174,5.726 2.988,5.975m3.734,-12.698c0.344,-1.712 4.123,-3.782 2.241,-5.229c-0.841,1.214 -4.45,3.454 -2.241,5.229m19.425,-36.608c-0.032,-2.225 2.225,-5.976 -0.747,-6.723c-0.533,2.21 -0.858,4.621 -2.244,5.976c1.308,-0.06 2.319,0.17 2.991,0.747m11.951,-1.494c-8.311,1.403 -16.528,2.894 -23.159,5.976c2.896,3.331 4.252,8.204 7.473,11.204c0.51,-2.332 1.992,-0.977 3.732,-0.743c0.469,2.707 -0.372,3.75 2.991,4.485c-2.692,-10.445 3.69,-14.974 8.963,-20.922m-11.204,25.4c-1.17,1.838 2.537,2.197 2.241,0.747c-0.949,-0.047 -1.028,-0.964 -2.241,-0.747m19.421,-20.171c0,-0.498 0.003,-0.993 0.003,-1.491l-1.497,-0.003c0,0.498 0,0.996 0.003,1.497c0.498,0 0.993,-0.003 1.491,-0.003m21.665,8.22c-2.767,3.706 -7.158,5.79 -11.951,7.469c-1.245,-2.991 -3.02,-5.446 -4.482,-8.219c-14.007,12.392 -25.104,27.688 -38.102,41.089c0.952,3.536 4.11,4.86 4.482,8.964c-0.87,-0.12 -1.321,0.173 -1.494,0.75c-2.335,0.343 -2.38,-1.604 -2.241,-3.735c-1.834,0.095 -3.593,0.107 -4.482,-0.75c-1.68,0.564 -0.296,4.192 -0.747,5.979c-7.05,0.684 -9.244,-7.473 -11.951,-11.952c-2.991,-4.932 -6.414,-10.038 -7.47,-14.195c-1.245,-1.245 -3.019,-1.961 -2.991,-4.485c4.747,-1.229 6.909,-5.043 11.952,-5.976c0.731,3.505 3.75,4.715 4.481,8.22c3.924,-2.802 6.54,-6.912 10.461,-9.711c-2.925,-6.789 -7.674,-11.753 -10.461,-18.68c-4.853,0.87 -8.588,2.865 -14.192,2.991c1.119,3.609 3.158,6.303 5.232,8.963c-3.098,3.376 -7.457,5.497 -11.955,7.473c-6.026,-9.915 -11.954,-19.922 -17.933,-29.885c2.666,-3.082 8.825,-6.599 11.954,-6.722c2.604,2.691 -2.319,2.067 -1.493,5.232c-1.324,-2.604 -2.881,-1.047 -2.238,2.237l-5.232,0c0.885,1.605 4.047,0.933 2.988,4.482c3.003,-0.482 6.165,-0.807 8.216,-2.241c0,-1.494 0,-2.988 0,-4.482c1.529,0.218 1.463,2.024 2.991,2.241c13.446,-2.988 26.04,-6.833 39.596,-9.71c1.727,0.762 3.47,1.509 3.735,3.735c-0.095,-4.344 4.62,-6.96 10.457,-7.47c-1.787,-3.193 -4.031,-5.935 -5.232,-9.714c3.707,-2.275 7.848,-4.11 11.211,-6.723c9.493,14.41 17.852,29.961 26.891,44.825" style="fill:#252f28;fill-rule:nonzero;"/><path d="M207.084,645.879c0.233,1.979 -1.554,1.932 -2.988,2.244c0.123,-0.873 -0.17,-1.324 -0.747,-1.497c0.684,-2.506 1.387,-0.372 3.735,-0.747" style="fill:#252f28;fill-rule:nonzero;"/></svg>